<?xml version="1.0" encoding="UTF-8" standalone="no"?>
<!-- Created with Inkscape (http://www.inkscape.org/) -->

<svg
   width="32mm"
   height="32mm"
   viewBox="0 0 32 32"
   version="1.1"
   id="svg414"
   inkscape:version="1.2.1 (9c6d41e410, 2022-07-14)"
   sodipodi:docname="32c32.svg"
   xmlns:inkscape="http://www.inkscape.org/namespaces/inkscape"
   xmlns:sodipodi="http://sodipodi.sourceforge.net/DTD/sodipodi-0.dtd"
   xmlns="http://www.w3.org/2000/svg"
   xmlns:svg="http://www.w3.org/2000/svg">
  <sodipodi:namedview
     id="namedview416"
     pagecolor="#505050"
     bordercolor="#ffffff"
     borderopacity="1"
     inkscape:showpageshadow="0"
     inkscape:pageopacity="0"
     inkscape:pagecheckerboard="1"
     inkscape:deskcolor="#505050"
     inkscape:document-units="mm"
     showgrid="false"
     inkscape:zoom="9.5144352"
     inkscape:cx="42.251588"
     inkscape:cy="65.11159"
     inkscape:window-width="3440"
     inkscape:window-height="1370"
     inkscape:window-x="7073"
     inkscape:window-y="-6"
     inkscape:window-maximized="1"
     inkscape:current-layer="layer1" />
  <defs
     id="defs411" />
  <g
     inkscape:label="Layer 1"
     inkscape:groupmode="layer"
     id="layer1">
    <path
       d="M 31.495083,12.418167 C 31.01354,10.322914 30.135973,8.3845152 28.886822,6.6569586 27.680332,4.9883748 26.179725,3.5856477 24.426709,2.4878876 22.67376,1.3900606 20.756657,0.65241856 18.728774,0.29550873 16.629223,-0.07409703 14.502232,-0.0173081 12.406913,0.46423672 10.311594,0.94578239 8.3732631,1.8233487 6.6457063,3.0724994 4.9771227,4.2790598 3.5743958,5.7795968 2.4766362,7.5326129 1.8058854,8.6036851 1.2698037,9.7361868 0.87262258,10.917627 c -0.29691317,0.842894 -0.50918899,1.715477 -0.63778309,2.599801 -0.008053,0.05439 -0.0156307,0.108862 -0.0230711,0.163404 -0.2866749,1.953007 -0.20606467,3.926011 0.24107981,5.871646 0.48154531,2.095319 1.3591116,4.033651 2.6082625,5.761208 1.2064914,1.668582 2.7070973,3.07131 4.4600451,4.16907 1.7529481,1.097827 3.6700512,1.835469 5.6979332,2.192448 2.099619,0.369605 4.22661,0.312817 6.321862,-0.168729 0.967389,-0.22231 1.906386,-0.532942 2.806614,-0.925278 0.258758,-0.100675 0.492193,-0.202787 0.694435,-0.303875 0.06293,-0.03474 0.127571,-0.06662 0.19296,-0.09767 0.0613,-0.03488 0.12327,-0.06675 0.186407,-0.09828 0.10791,-0.06156 0.2176,-0.120404 0.326876,-0.180674 0.25951,-0.14443 0.510896,-0.303465 0.76078,-0.464345 0.0344,-0.02245 0.06853,-0.04525 0.102656,-0.06812 0.826375,-0.53294 1.604151,-1.142944 2.321861,-1.824547 0.970054,-1.03435 -0.440387,-1.933074 -1.651109,-1.014623 -0.06171,-0.675325 -0.125591,-1.359589 -0.193097,-1.477126 -0.35882,-0.624338 -1.049162,-0.980428 -1.765301,-0.904868 -0.130164,0.01371 -0.504686,0.07583 -0.792452,0.103684 -0.03706,0.0035 -0.07385,0.0033 -0.11051,0.0012 -0.906712,1.851441 -2.987289,1.29502 -2.987289,1.29502 2.249648,-0.446599 2.428682,-1.585585 2.428682,-1.585585 0.0048,-1.299934 -0.05727,-4.213436 -0.203812,-5.253043 -0.0961,-0.681861 -0.521877,-1.331316 -1.170581,-1.59806 -0.74638,-0.333019 -1.608793,-0.246882 -2.346092,-0.603928 -0.26613,-0.120404 -0.433631,-0.357252 -0.560246,-0.611096 -0.05651,-0.113304 -0.108386,-0.23671 -0.142245,-0.35882 -0.06601,-0.238555 0.0037,-0.478065 0.06722,-0.709997 0.109957,0.189819 0.138287,0.639626 0.250158,0.828557 0.02069,0.03488 0.05822,0.05617 0.09876,0.0561 h 0.002 c 0.06218,0 0.113306,-0.05106 0.114261,-0.113305 0.0062,-0.422639 -0.03671,-0.850809 0.09645,-1.259389 0.15658,-0.485436 0.380254,-0.94357 0.57492,-1.413308 0.04642,-0.09672 0.06546,-0.258484 0.0748,-0.41049 0.0084,-0.135898 -0.133917,-0.22934 -0.2548,-0.166749 -0.05331,0.02758 -0.106615,0.04921 -0.159649,0.04703 -0.01325,-0.339641 0.0323,-0.68679 -0.02655,-1.022269 -0.234624,-0.714981 -0.926057,-1.099809 -1.344534,-1.6874226 -0.08245,-0.115762 -0.124772,-0.2555502 -0.119652,-0.3975908 0.007,-0.191594 0.0081,-0.3844174 -0.06764,-0.5635209 -0.01028,-0.032628 -0.02362,-0.063202 -0.03945,-0.092213 -0.147843,-0.2705664 -0.440455,-0.416156 -0.731907,-0.4033926 -0.291453,-0.012766 -0.584066,0.1328948 -0.731909,0.4033926 -0.01583,0.029008 -0.02921,0.059656 -0.03945,0.092213 -0.0757,0.1791035 -0.07461,0.3719269 -0.06764,0.5635209 0.0051,0.1419722 -0.0372,0.2818288 -0.119585,0.3975908 -0.418477,0.5875456 -1.10991,0.9724416 -1.344505,1.6874216 -0.05884,0.335547 -0.01324,0.682628 -0.02656,1.022269 -0.0531,0.0022 -0.10634,-0.01946 -0.15965,-0.04703 -0.120881,-0.06259 -0.263194,0.03085 -0.254799,0.166748 0.0094,0.152007 0.02847,0.313773 0.07481,0.410492 0.194667,0.469738 0.418341,0.927872 0.57492,1.413308 0.133167,0.408579 0.09023,0.83668 0.09645,1.259389 8.74e-4,0.06218 0.052,0.113169 0.114261,0.113305 h 0.002 c 0.04054,6.8e-5 0.07808,-0.02116 0.09876,-0.0561 0.111868,-0.188931 0.140195,-0.638671 0.250155,-0.828557 0.06361,0.231932 0.133235,0.471511 0.06722,0.709997 -0.03378,0.122178 -0.08566,0.245516 -0.142246,0.35882 -0.126684,0.253844 -0.294183,0.490761 -0.560243,0.611096 -0.737302,0.357046 -1.599714,0.270909 -2.346092,0.603928 -0.648704,0.266744 -1.074484,0.916268 -1.170588,1.598007 -0.146545,1.039606 -0.208522,3.953177 -0.203812,5.253043 0,0 0.179035,1.138986 2.42868,1.585584 0,0 -2.080576,0.556489 -2.9872866,-1.295019 C 9.4901124,24.254 9.4532534,24.2543 9.4162586,24.2507 9.1284952,24.222894 8.753975,24.160777 8.6238111,24.147062 7.9601413,24.077025 7.3188771,24.377901 6.942787,24.91924 6.0037174,23.961946 5.2075807,22.861932 4.5891138,21.674075 4.4915762,21.479478 4.4013421,21.281604 4.2991627,21.089736 4.2244772,20.913363 4.1560847,20.733918 4.0674202,20.563962 3.8862691,20.091084 3.7163119,19.614043 3.5657394,19.130383 3.4566662,18.657984 3.3464331,18.185379 3.2403635,17.712298 3.1396178,17.053492 3.0736826,16.388339 3.0588028,15.720524 c 0.00389,-0.08511 0.00286,-0.170777 0.00198,-0.255825 0.00417,-0.144361 0.00737,-0.288039 0.00574,-0.432127 0.065526,-1.347986 0.3262631,-2.691263 0.8215961,-3.94881 C 4.4443949,9.6346897 5.2932934,8.3055425 6.3460039,7.1673753 6.7403209,6.7419372 7.1646679,6.3447564 7.6089456,5.9718064 8.3477474,5.3631685 9.1453175,4.8269503 9.9898478,4.3769389 c 0.062935,-0.03474 0.1277742,-0.065591 0.1919352,-0.097401 0.127912,-0.069896 0.256848,-0.1373992 0.391789,-0.1929594 1.481905,-0.6732082 2.794328,-0.9631598 4.549664,-1.0994666 0.101628,-0.00792 0.204699,-0.020954 0.307698,-0.011537 0.07425,-0.0064 0.149685,-0.016788 0.224903,-0.00744 0.155623,-0.00488 0.311248,-0.00758 0.466529,0.00481 0.128117,-0.00167 0.256029,0.0051 0.384144,0.015156 0.05666,0.00291 0.113305,0.00597 0.170094,0.00942 0.471443,0.026008 0.93961,0.091189 1.404844,0.1713899 0.298005,0.050916 0.592255,0.1224515 0.886916,0.1891374 0.074,0.020342 0.147978,0.04061 0.222584,0.059175 1.162055,0.3236693 2.272579,0.824531 3.307884,1.4385612 0.350631,0.1753498 0.655599,0.423528 0.985617,0.6323909 0.777365,0.5544425 1.489888,1.1979597 2.122757,1.9125303 0.233709,0.2512502 0.442777,0.524751 0.668977,0.7822806 0.13501,0.1537126 0.37957,-0.00778 0.291178,-0.1922764 l -0.0027,-0.00554 c -0.502726,-0.842003 -1.240232,-1.5085222 -1.952688,-2.1701947 -0.03577,-0.034332 -0.07241,-0.067711 -0.109614,-0.1005409 -0.113577,-0.1003353 0.0099,-0.2805996 0.144907,-0.2117295 0.04246,0.021704 0.08485,0.043203 0.12723,0.063749 0.663379,0.4111053 1.207446,0.9850692 1.690767,1.5916591 0.724332,0.9361294 1.327305,1.9636538 1.821615,3.0379332 0.256164,0.539358 0.450077,1.104724 0.663856,1.66128 0.108043,0.488645 0.254321,0.972171 0.296845,1.472689 0.08143,0.39609 0.09023,0.800917 0.150435,1.199737 0.08689,1.496372 0.119448,3.022847 -0.2348,4.490553 -0.0518,0.232686 -0.182105,0.475063 -0.18818,0.714983 -0.0042,0.162926 0.192073,0.251045 0.314796,0.143815 0.228724,-0.199717 0.341891,-0.52516 0.437041,-0.807605 0.190504,-0.642015 0.271318,-1.311059 0.31268,-1.977988 0.01107,-0.197668 0.02116,-0.395132 0.02369,-0.593006 0.0033,-0.07167 0.0033,-0.143132 0.0048,-0.213846 0.0026,-0.07256 0.0026,-0.144565 0.0042,-0.21637 0.0038,-0.08567 -0.0026,-0.171118 -0.0083,-0.256167 0.02156,-0.667132 -0.06601,-1.331125 -0.100333,-1.995528 -0.08074,-0.465028 -0.09624,-0.940772 -0.210977,-1.40068 -0.03296,-0.491511 -0.201766,-0.954423 -0.332475,-1.423409 0.03296,-0.03747 0.066,-0.07488 0.09959,-0.111939 0.09324,0.06922 0.160605,0.163063 0.219101,0.262103 0.07269,0.16081 0.135829,0.326535 0.220057,0.482023 0.04149,0.169069 0.105389,0.330905 0.170708,0.492329 0.08559,0.33541 0.156171,0.674846 0.236303,1.012031 0.08184,0.28886 0.07406,0.591369 0.139445,0.88289 0.0089,0.31466 0.09112,0.628501 0.06266,0.943161 l 0.01095,0.0033 c 0.0085,0.04866 0.0256,0.146066 0.03413,0.194802 l -0.05556,-0.0144 c 0.0428,0.06797 0.04021,0.151801 0.04745,0.229544 0.01182,0.336911 0.0035,0.674163 0.0127,1.011142 -0.07262,1.955327 -0.35889,3.938912 -1.171408,5.734793 -0.276299,0.55615 -0.586659,1.129227 -0.601401,1.76544 0.01,0.178012 0.07379,0.309472 0.155283,0.405781 0.161288,0.190639 0.463047,0.167295 0.592596,-0.04621 1.020493,-1.681552 1.71336,-3.51122 2.06085,-5.443817 0.380808,-2.118124 0.327501,-4.264431 -0.15855,-6.37934 z"
       id="path197"
       style="stroke-width:0.0682558" />
  </g>
</svg>
