<?xml version="1.0" encoding="iso-8859-1"?>
<!-- Generator: Adobe Illustrator 28.3.0, SVG Export Plug-In . SVG Version: 6.00 Build 0)  -->
<svg version="1.1" id="Layer_1" xmlns="http://www.w3.org/2000/svg" xmlns:xlink="http://www.w3.org/1999/xlink" x="0px" y="0px"
	 viewBox="0 0 2560 1538" style="enable-background:new 0 0 2560 1538;" xml:space="preserve">
<g>
	<path style="fill:#FFFFFF;" d="M1967.565-3585.99c-7.055-30.698-19.912-59.096-38.213-84.406
		c-17.676-24.446-39.661-44.997-65.344-61.08c-25.682-16.084-53.769-26.891-83.479-32.12c-30.76-5.415-61.922-4.583-92.62,2.472
		c-30.698,7.055-59.096,19.912-84.406,38.213c-24.446,17.677-44.997,39.661-61.08,65.344c-9.827,15.692-17.681,32.284-23.5,49.593
		c-4.35,12.349-7.46,25.133-9.344,38.089c-0.118,0.797-0.229,1.595-0.338,2.394c-4.2,28.613-3.019,57.519,3.532,86.024
		c7.055,30.698,19.912,59.096,38.213,84.406c17.676,24.447,39.661,44.997,65.343,61.08c25.682,16.084,53.769,26.891,83.479,32.121
		c30.76,5.415,61.923,4.583,92.62-2.471c14.173-3.257,27.93-7.808,41.119-13.556c3.792-1.475,7.211-2.971,10.174-4.453
		c0.922-0.509,1.869-0.976,2.827-1.431c0.898-0.511,1.806-0.978,2.731-1.44c1.581-0.902,3.188-1.764,4.789-2.647
		c3.802-2.116,7.485-4.446,11.146-6.803c0.504-0.329,1.004-0.664,1.504-0.998c12.107-7.808,23.502-16.746,34.017-26.731
		c14.212-15.154-6.452-28.321-24.19-14.865c-0.904-9.894-1.839-19.918-2.829-21.641c-5.257-9.147-15.371-14.364-25.864-13.257
		c-1.907,0.201-7.394,1.111-11.61,1.519c-0.542,0.052-1.082,0.048-1.619,0.017c-13.284,27.125-43.766,18.973-43.766,18.973
		c32.959-6.543,35.582-23.23,35.582-23.23c0.069-19.045-0.839-61.73-2.986-76.961c-1.408-9.989-7.646-19.504-17.15-23.412
		c-10.935-4.879-23.57-3.617-34.372-8.848c-3.899-1.763-6.353-5.234-8.208-8.953c-0.828-1.66-1.588-3.468-2.084-5.257
		c-0.967-3.495,0.053-7.004,0.985-10.402c1.611,2.781,2.026,9.371,3.665,12.139c0.303,0.511,0.853,0.823,1.447,0.822l0.029,0
		c0.911-0.001,1.66-0.748,1.673-1.66c0.091-6.192-0.538-12.465,1.413-18.451c2.294-7.112,5.571-13.824,8.423-20.706
		c0.68-1.417,0.959-3.787,1.096-6.014c0.123-1.991-1.962-3.36-3.733-2.443c-0.781,0.404-1.562,0.721-2.339,0.689
		c-0.194-4.976,0.473-10.062-0.389-14.977c-3.437-10.475-13.567-16.113-19.698-24.722c-1.208-1.696-1.828-3.744-1.752-5.825
		c0.101-2.807,0.118-5.632-0.991-8.256c-0.15-0.478-0.346-0.926-0.578-1.351c-2.166-3.964-6.453-6.097-10.723-5.91
		c-4.27-0.187-8.556,1.947-10.723,5.91c-0.232,0.425-0.428,0.874-0.578,1.351c-1.109,2.624-1.093,5.449-0.991,8.256
		c0.075,2.08-0.545,4.129-1.752,5.825c-6.131,8.609-16.261,14.247-19.698,24.722c-0.862,4.916-0.194,10.001-0.389,14.977
		c-0.777,0.032-1.558-0.285-2.339-0.689c-1.771-0.917-3.856,0.452-3.733,2.443c0.138,2.227,0.417,4.597,1.096,6.014
		c2.852,6.882,6.129,13.594,8.423,20.706c1.951,5.986,1.322,12.258,1.413,18.451c0.013,0.911,0.762,1.658,1.674,1.66l0.029,0
		c0.594,0.001,1.144-0.311,1.447-0.822c1.639-2.768,2.054-9.357,3.665-12.139c0.932,3.398,1.952,6.908,0.985,10.402
		c-0.495,1.79-1.255,3.597-2.084,5.257c-1.856,3.719-4.309,7.19-8.208,8.953c-10.802,5.231-23.437,3.969-34.372,8.848
		c-9.504,3.908-15.742,13.424-17.15,23.412c-2.147,15.231-3.055,57.917-2.985,76.961c0,0,2.623,16.687,35.582,23.23
		c0,0-30.482,8.153-43.766-18.973c-0.537,0.031-1.077,0.035-1.619-0.017c-4.216-0.408-9.703-1.318-11.61-1.519
		c-9.723-1.026-19.118,3.382-24.628,11.312c-13.758-14.025-25.422-30.141-34.483-47.543c-1.429-2.851-2.751-5.75-4.249-8.561
		c-1.094-2.584-2.096-5.213-3.395-7.703c-2.655-6.928-5.144-13.917-7.35-21.003c-1.598-6.921-3.213-13.845-4.767-20.776
		c-1.476-9.652-2.443-19.397-2.66-29.181c0.057-1.247,0.042-2.502,0.029-3.748c0.061-2.115,0.108-4.22,0.084-6.331
		c0.96-19.749,4.78-39.429,12.037-57.853c8.15-21.23,20.587-40.703,36.01-57.378c5.777-6.233,11.994-12.052,18.503-17.516
		c10.824-8.917,22.509-16.773,34.882-23.366c0.922-0.509,1.872-0.961,2.812-1.427c1.874-1.024,3.763-2.013,5.74-2.827
		c21.711-9.863,40.939-14.111,66.655-16.108c1.489-0.116,3-0.307,4.508-0.169c1.088-0.094,2.193-0.246,3.295-0.109
		c2.28-0.071,4.56-0.111,6.835,0.07c1.877-0.025,3.751,0.075,5.628,0.222c0.83,0.043,1.661,0.087,2.492,0.138
		c6.907,0.381,13.766,1.336,20.582,2.511c4.366,0.746,8.677,1.794,12.994,2.771c1.084,0.298,2.168,0.595,3.261,0.867
		c17.025,4.742,33.295,12.08,48.463,21.076c5.137,2.569,9.605,6.206,14.44,9.265c11.389,8.123,21.828,17.551,31.1,28.02
		c3.424,3.681,6.487,7.688,9.801,11.461c1.978,2.252,5.561-0.114,4.266-2.817l-0.039-0.081
		c-7.366-12.337-18.171-22.102-28.609-31.795c-0.524-0.503-1.061-0.992-1.606-1.473c-1.664-1.47,0.145-4.111,2.123-3.102
		c0.622,0.318,1.243,0.633,1.864,0.934c9.719,6.023,17.69,14.432,24.771,23.319c10.612,13.715,19.446,28.769,26.688,44.508
		c3.753,7.902,6.594,16.185,9.726,24.339c1.583,7.159,3.726,14.243,4.349,21.576c1.193,5.803,1.322,11.733,2.204,17.577
		c1.273,21.923,1.75,44.287-3.44,65.789c-0.759,3.409-2.668,6.96-2.757,10.476c-0.061,2.387,2.814,3.678,4.612,2.107
		c3.351-2.926,5.009-7.694,6.403-11.832c2.791-9.406,3.975-19.208,4.581-28.979c0.162-2.896,0.31-5.789,0.347-8.688
		c0.048-1.05,0.049-2.097,0.069-3.133c0.037-1.063,0.037-2.118,0.061-3.17c0.055-1.255-0.037-2.507-0.12-3.753
		c0.316-9.774-0.967-19.502-1.47-29.236c-1.183-6.813-1.41-13.783-3.091-20.521c-0.483-7.2-2.956-13.983-4.871-20.854
		c0.483-0.548,0.967-1.097,1.459-1.64c1.366,1.014,2.353,2.389,3.21,3.84c1.065,2.356,1.99,4.784,3.224,7.062
		c0.608,2.477,1.544,4.848,2.501,7.213c1.255,4.914,2.288,9.887,3.462,14.827c1.199,4.232,1.085,8.664,2.043,12.935
		c0.13,4.61,1.335,9.208,0.918,13.818l0.16,0.049c0.125,0.713,0.375,2.14,0.5,2.854l-0.814-0.211
		c0.627,0.996,0.589,2.224,0.695,3.363c0.173,4.936,0.052,9.877,0.186,14.814c-1.064,28.647-5.258,57.708-17.162,84.019
		c-4.048,8.148-8.595,16.543-8.811,25.865c0.145,2.608,1.081,4.534,2.275,5.945c2.363,2.793,6.784,2.451,8.682-0.677
		c14.951-24.636,25.102-51.442,30.193-79.756C1975.468-3523.561,1974.686-3555.005,1967.565-3585.99z"/>
	<g>
		<path style="fill:#FFFFFF;" d="M2155.578-3419.379c-15.417,0-29.789-2.656-43.116-7.967c-13.332-5.311-24.79-14.215-34.368-26.713
			c-3.544-4.998-4.74-9.632-3.593-13.903c1.142-4.266,4.218-7.757,9.216-10.467c4.79-2.913,9.164-3.797,13.123-2.656
			c3.954,1.148,7.913,3.906,11.873,8.28c5.624,6.043,12.341,10.73,20.152,14.06c7.811,3.335,17.131,4.999,27.963,4.999
			c14.577,0,24.838-2.656,30.775-7.967s8.905-12.546,8.905-21.715c0-5.829-1.303-10.828-3.906-14.997
			c-2.607-4.164-8.021-8.069-16.247-11.716c-8.231-3.642-20.884-7.342-37.961-11.092c-20.206-4.789-35.149-12.39-44.835-22.807
			c-9.685-10.413-14.528-23.638-14.528-39.68c0-12.703,3.071-23.902,9.217-33.587c6.141-9.685,14.787-17.233,25.932-22.652
			c11.141-5.413,24.214-8.123,39.211-8.123c15.622,0,29.261,2.71,40.929,8.123c11.663,5.419,21.451,12.395,29.369,20.934
			c3.954,4.374,5.516,8.748,4.687,13.123c-0.835,4.374-3.544,8.333-8.123,11.872c-4.584,3.75-8.958,5.209-13.123,4.375
			c-4.169-0.83-8.333-3.227-12.498-7.186c-5.208-4.789-11.145-8.748-17.809-11.873c-6.668-3.124-14.582-4.687-23.745-4.687
			c-10.833,0-19.635,2.344-26.401,7.03c-6.771,4.687-10.154,11.716-10.154,21.09c0,4.169,0.986,8.176,2.968,12.029
			c1.977,3.857,6.351,7.552,13.123,11.091c6.766,3.545,17.232,6.981,31.4,10.311c24.995,5.623,43.009,14.06,54.052,25.307
			c11.038,11.248,16.559,25.415,16.559,42.491c0,20.831-7.24,36.818-21.715,47.959
			C2198.43-3424.949,2179.323-3419.379,2155.578-3419.379z"/>
		<path style="fill:#FFFFFF;" d="M2317.732-3421.565c-16.247,0.625-29.633-2.915-40.148-10.623
			c-10.521-7.703-15.778-18.849-15.778-33.43c0-10.623,3.227-19.684,9.686-27.182c6.454-7.498,14.787-13.381,24.995-17.653
			c10.203-4.266,20.723-6.507,31.556-6.717c5.414-0.415,10.516,0,15.309,1.25c4.789,1.25,9.061,3.022,12.81,5.311v-13.123
			c0-9.788-2.085-16.139-6.249-19.058c-4.169-2.915-10.31-4.375-18.434-4.375c-5.833,0-11.926,0.732-18.277,2.187
			c-6.356,1.46-12.551,3.437-18.59,5.936c-5.418,2.295-10.052,3.125-13.903,2.5c-3.857-0.625-7.03-3.125-9.53-7.498
			c-2.5-4.375-3.076-8.592-1.718-12.654c1.352-4.062,4.843-7.235,10.466-9.53c7.499-3.539,15.671-6.351,24.526-8.435
			c8.851-2.08,17.858-3.125,27.025-3.125c19.372,0,33.949,3.906,43.741,11.717c9.788,7.81,14.684,21.924,14.684,42.334v69.049
			c0,2.085,0.259,3.75,0.781,5c0.517,1.25,0.986,2.187,1.406,2.812c1.875,2.71,3.906,4.272,6.092,4.687
			c2.187,0.42,4.11,0.679,5.781,0.781c1.665,0.107,2.499,1.094,2.499,2.969c0,3.749-0.991,6.98-2.968,9.685
			c-1.982,2.71-5.263,4.584-9.842,5.624c-4.794,1.04-9.481,1.562-14.06,1.562c-6.458,0-11.404-1.094-14.841-3.281
			c-3.437-2.187-5.887-5.882-7.342-11.092c-5.209,4.375-11.248,7.762-18.122,10.155
			C2332.416-3423.391,2325.23-3421.985,2317.732-3421.565z M2317.107-3452.184c11.663-0.415,21.294-2.705,28.9-6.873
			c7.601-4.165,11.194-10.101,10.779-17.809c-0.21-5-2.763-8.436-7.655-10.311c-4.897-1.875-10.99-2.602-18.278-2.187
			c-10.208,0.21-18.644,2.763-25.308,7.654c-6.668,4.896-9.896,10.365-9.685,16.403
			C2296.276-3455.934,2303.36-3451.559,2317.107-3452.184z"/>
		<path style="fill:#FFFFFF;" d="M2487.385-3420.315c-14.792,0-26.089-2.71-33.899-8.123c-7.811-5.414-11.717-16.247-11.717-32.493
			v-82.796h-10.31c-12.292,0-18.434-5.101-18.434-15.309c0-4.789,1.299-8.485,3.906-11.092c2.602-2.602,7.342-3.905,14.215-3.905
			h10.623v-34.368c0-12.288,5.936-18.434,17.809-18.434c11.453,0,17.184,6.146,17.184,18.434v34.368h23.12
			c12.288,0,18.434,4.999,18.434,14.996c0,10.208-6.043,15.309-18.121,15.309h-23.433v73.735c0,7.083,1.718,11.873,5.155,14.372
			c3.437,2.5,8.382,3.749,14.841,3.749c6.664,0,11.922,0.782,15.778,2.344c3.852,1.562,5.78,5.575,5.78,12.029
			c0,5.208-1.513,9.012-4.531,11.404c-3.022,2.393-6.873,3.954-11.56,4.686C2497.539-3420.681,2492.589-3420.315,2487.385-3420.315z
			"/>
		<path style="fill:#FFFFFF;" d="M2610.797-3420.315c-13.747,0-26.088-3.281-37.023-9.842
			c-10.935-6.561-19.581-15.724-25.932-27.494c-6.356-11.766-9.53-25.566-9.53-41.398c0-15.826,3.173-29.628,9.53-41.397
			c6.351-11.766,14.997-20.933,25.932-27.494c10.935-6.561,23.276-9.842,37.023-9.842c14.162,0,26.714,3.281,37.648,9.842
			c10.935,6.562,19.527,15.729,25.776,27.494c6.249,11.77,9.373,25.571,9.373,41.397c0,15.832-3.124,29.633-9.373,41.398
			c-6.249,11.77-14.841,20.933-25.776,27.494C2637.51-3423.596,2624.959-3420.315,2610.797-3420.315z M2610.797-3452.184
			c11.038,0,20.045-4.062,27.026-12.185c6.976-8.124,10.467-19.684,10.467-34.681c0-14.996-3.491-26.557-10.467-34.68
			c-6.981-8.123-15.988-12.185-27.026-12.185c-10.833,0-19.683,4.062-26.557,12.185c-6.874,8.123-10.31,19.684-10.31,34.68
			c0,14.997,3.437,26.557,10.31,34.681C2591.114-3456.246,2599.964-3452.184,2610.797-3452.184z"/>
		<path style="fill:#FFFFFF;" d="M2731.71-3423.752c-11.873,0-17.809-6.141-17.809-18.434v-113.415
			c0-12.288,6.142-18.433,18.434-18.433c4.164,0,7.811,0.991,10.935,2.968c3.124,1.982,4.687,5.677,4.687,11.092v7.185
			c3.749-7.498,9.632-13.536,17.653-18.121c8.016-4.579,16.506-6.873,25.464-6.873c6.454,0,11.404,1.718,14.84,5.156
			c3.437,3.437,5.156,8.074,5.156,13.903c0,5.419-1.357,9.373-4.062,11.872c-2.71,2.5-5.834,3.545-9.373,3.125
			c-1.67-0.205-3.437-0.361-5.312-0.469c-1.875-0.102-3.959-0.156-6.249-0.156c-10.208,0-18.902,3.335-26.089,9.998
			c-7.186,6.668-10.779,16.042-10.779,28.12v64.049C2749.207-3429.893,2743.373-3423.752,2731.71-3423.752z"/>
		<path style="fill:#FFFFFF;" d="M2855.435-3598.717c-6.044,0-11.248-2.187-15.622-6.561c-4.374-4.374-6.561-9.578-6.561-15.621
			c0-6.039,2.187-11.248,6.561-15.623c4.374-4.373,9.578-6.56,15.622-6.56c6.039,0,11.248,2.187,15.622,6.56
			c4.374,4.375,6.561,9.583,6.561,15.623c0,6.043-2.187,11.248-6.561,15.621C2866.682-3600.904,2861.473-3598.717,2855.435-3598.717
			z M2855.747-3423.752c-11.667,0-17.497-6.141-17.497-18.434v-113.415c0-12.288,5.829-18.433,17.497-18.433
			c11.663,0,17.497,6.146,17.497,18.433v113.415C2873.244-3429.893,2867.41-3423.752,2855.747-3423.752z"/>
	</g>
</g>
<g>
	<path d="M490.783-3585.99c-7.055-30.698-19.912-59.096-38.213-84.406c-17.676-24.446-39.661-44.997-65.344-61.08
		c-25.682-16.084-53.769-26.891-83.479-32.12c-30.76-5.415-61.922-4.583-92.62,2.472c-30.698,7.055-59.096,19.912-84.406,38.213
		c-24.446,17.677-44.997,39.661-61.08,65.344c-9.827,15.692-17.681,32.284-23.5,49.593c-4.35,12.349-7.46,25.133-9.344,38.089
		c-0.118,0.797-0.229,1.595-0.338,2.394c-4.2,28.613-3.019,57.519,3.532,86.024c7.055,30.698,19.912,59.096,38.213,84.406
		c17.676,24.447,39.661,44.997,65.343,61.08c25.682,16.084,53.769,26.891,83.479,32.121c30.761,5.415,61.923,4.583,92.62-2.471
		c14.173-3.257,27.93-7.808,41.119-13.556c3.792-1.475,7.211-2.971,10.174-4.453c0.922-0.509,1.869-0.976,2.827-1.431
		c0.898-0.511,1.806-0.978,2.731-1.44c1.581-0.902,3.188-1.764,4.789-2.647c3.802-2.116,7.485-4.446,11.146-6.803
		c0.504-0.329,1.004-0.664,1.504-0.998c12.107-7.808,23.502-16.746,34.017-26.731c14.212-15.154-6.452-28.321-24.19-14.865
		c-0.904-9.894-1.84-19.918-2.829-21.641c-5.257-9.147-15.371-14.364-25.863-13.257c-1.907,0.201-7.394,1.111-11.61,1.519
		c-0.543,0.052-1.082,0.048-1.619,0.017c-13.284,27.125-43.766,18.973-43.766,18.973c32.959-6.543,35.582-23.23,35.582-23.23
		c0.069-19.045-0.839-61.73-2.986-76.961c-1.408-9.989-7.646-19.504-17.15-23.412c-10.935-4.879-23.57-3.617-34.372-8.848
		c-3.899-1.763-6.353-5.234-8.208-8.953c-0.828-1.66-1.588-3.468-2.084-5.257c-0.967-3.495,0.053-7.004,0.985-10.402
		c1.611,2.781,2.026,9.371,3.665,12.139c0.303,0.511,0.853,0.823,1.447,0.822l0.029,0c0.911-0.001,1.66-0.748,1.674-1.66
		c0.091-6.192-0.538-12.465,1.413-18.451c2.294-7.112,5.571-13.824,8.423-20.706c0.68-1.417,0.959-3.787,1.096-6.014
		c0.123-1.991-1.962-3.36-3.733-2.443c-0.781,0.404-1.562,0.721-2.339,0.689c-0.194-4.976,0.473-10.062-0.389-14.977
		c-3.437-10.475-13.567-16.113-19.698-24.722c-1.208-1.696-1.828-3.744-1.752-5.825c0.101-2.807,0.118-5.632-0.991-8.256
		c-0.15-0.478-0.346-0.926-0.578-1.351c-2.166-3.964-6.453-6.097-10.723-5.91c-4.27-0.187-8.556,1.947-10.723,5.91
		c-0.232,0.425-0.428,0.874-0.578,1.351c-1.109,2.624-1.093,5.449-0.991,8.256c0.075,2.08-0.545,4.129-1.752,5.825
		c-6.131,8.609-16.261,14.247-19.698,24.722c-0.862,4.916-0.194,10.001-0.389,14.977c-0.778,0.032-1.558-0.285-2.339-0.689
		c-1.771-0.917-3.856,0.452-3.733,2.443c0.138,2.227,0.417,4.597,1.096,6.014c2.852,6.882,6.129,13.594,8.423,20.706
		c1.951,5.986,1.322,12.258,1.413,18.451c0.013,0.911,0.762,1.658,1.674,1.66l0.029,0c0.594,0.001,1.144-0.311,1.447-0.822
		c1.639-2.768,2.054-9.357,3.665-12.139c0.932,3.398,1.952,6.908,0.985,10.402c-0.495,1.79-1.255,3.597-2.084,5.257
		c-1.856,3.719-4.31,7.19-8.208,8.953c-10.802,5.231-23.437,3.969-34.372,8.848c-9.504,3.908-15.742,13.424-17.15,23.412
		c-2.147,15.231-3.055,57.917-2.986,76.961c0,0,2.623,16.687,35.582,23.23c0,0-30.482,8.153-43.766-18.973
		c-0.537,0.031-1.077,0.035-1.619-0.017c-4.216-0.408-9.703-1.318-11.61-1.519c-9.723-1.026-19.118,3.382-24.628,11.312
		c-13.758-14.025-25.422-30.141-34.483-47.543c-1.429-2.851-2.751-5.75-4.248-8.561c-1.094-2.584-2.096-5.213-3.395-7.703
		c-2.654-6.928-5.144-13.917-7.35-21.003c-1.598-6.921-3.213-13.845-4.767-20.776c-1.476-9.652-2.442-19.397-2.66-29.181
		c0.057-1.247,0.042-2.502,0.029-3.748c0.061-2.115,0.108-4.22,0.084-6.331c0.96-19.749,4.78-39.429,12.037-57.853
		c8.15-21.23,20.587-40.703,36.01-57.378c5.777-6.233,11.994-12.052,18.503-17.516c10.824-8.917,22.509-16.773,34.882-23.366
		c0.922-0.509,1.872-0.961,2.812-1.427c1.874-1.024,3.763-2.013,5.74-2.827c21.711-9.863,40.939-14.111,66.656-16.108
		c1.489-0.116,2.999-0.307,4.508-0.169c1.088-0.094,2.193-0.246,3.295-0.109c2.28-0.071,4.56-0.111,6.835,0.07
		c1.877-0.025,3.751,0.075,5.628,0.222c0.83,0.043,1.66,0.087,2.492,0.138c6.907,0.381,13.766,1.336,20.582,2.511
		c4.366,0.746,8.677,1.794,12.994,2.771c1.084,0.298,2.168,0.595,3.261,0.867c17.025,4.742,33.295,12.08,48.463,21.076
		c5.137,2.569,9.605,6.206,14.44,9.265c11.389,8.123,21.828,17.551,31.1,28.02c3.424,3.681,6.487,7.688,9.801,11.461
		c1.978,2.252,5.561-0.114,4.266-2.817l-0.039-0.081c-7.366-12.337-18.171-22.102-28.609-31.795
		c-0.524-0.503-1.061-0.992-1.606-1.473c-1.664-1.47,0.145-4.111,2.123-3.102c0.622,0.318,1.243,0.633,1.864,0.934
		c9.719,6.023,17.69,14.432,24.771,23.319c10.612,13.715,19.446,28.769,26.688,44.508c3.753,7.902,6.594,16.185,9.726,24.339
		c1.583,7.159,3.726,14.243,4.349,21.576c1.193,5.803,1.322,11.733,2.204,17.577c1.273,21.923,1.75,44.287-3.44,65.789
		c-0.759,3.409-2.668,6.96-2.757,10.476c-0.061,2.387,2.814,3.678,4.612,2.107c3.351-2.926,5.009-7.694,6.403-11.832
		c2.791-9.406,3.975-19.208,4.581-28.979c0.162-2.896,0.31-5.789,0.347-8.688c0.048-1.05,0.049-2.097,0.069-3.133
		c0.037-1.063,0.037-2.118,0.061-3.17c0.055-1.255-0.037-2.507-0.121-3.753c0.316-9.774-0.967-19.502-1.47-29.236
		c-1.183-6.813-1.41-13.783-3.091-20.521c-0.483-7.2-2.956-13.983-4.871-20.854c0.483-0.548,0.967-1.097,1.459-1.64
		c1.366,1.014,2.353,2.389,3.21,3.84c1.065,2.356,1.99,4.784,3.224,7.062c0.608,2.477,1.544,4.848,2.501,7.213
		c1.254,4.914,2.288,9.887,3.462,14.827c1.199,4.232,1.085,8.664,2.043,12.935c0.13,4.61,1.335,9.208,0.918,13.818l0.16,0.049
		c0.125,0.713,0.375,2.14,0.5,2.854l-0.814-0.211c0.627,0.996,0.589,2.224,0.695,3.363c0.173,4.936,0.052,9.877,0.186,14.814
		c-1.064,28.647-5.258,57.708-17.162,84.019c-4.048,8.148-8.595,16.543-8.811,25.865c0.145,2.608,1.081,4.534,2.275,5.945
		c2.363,2.793,6.784,2.451,8.682-0.677c14.951-24.636,25.102-51.442,30.193-79.756
		C498.685-3523.561,497.904-3555.005,490.783-3585.99z"/>
	<g>
		<path d="M678.795-3419.379c-15.417,0-29.789-2.656-43.116-7.967c-13.332-5.311-24.79-14.215-34.368-26.713
			c-3.544-4.998-4.74-9.632-3.593-13.903c1.142-4.266,4.218-7.757,9.216-10.467c4.789-2.913,9.163-3.797,13.123-2.656
			c3.954,1.148,7.914,3.906,11.873,8.28c5.624,6.043,12.341,10.73,20.152,14.06c7.811,3.335,17.131,4.999,27.964,4.999
			c14.577,0,24.838-2.656,30.775-7.967c5.936-5.312,8.905-12.546,8.905-21.715c0-5.829-1.303-10.828-3.906-14.997
			c-2.607-4.164-8.021-8.069-16.247-11.716c-8.231-3.642-20.884-7.342-37.961-11.092c-20.206-4.789-35.149-12.39-44.835-22.807
			c-9.685-10.413-14.528-23.638-14.528-39.68c0-12.703,3.071-23.902,9.217-33.587c6.141-9.685,14.787-17.233,25.932-22.652
			c11.141-5.413,24.214-8.123,39.211-8.123c15.622,0,29.262,2.71,40.929,8.123c11.663,5.419,21.451,12.395,29.369,20.934
			c3.954,4.374,5.516,8.748,4.686,13.123c-0.835,4.374-3.544,8.333-8.123,11.872c-4.584,3.75-8.958,5.209-13.123,4.375
			c-4.169-0.83-8.333-3.227-12.498-7.186c-5.208-4.789-11.145-8.748-17.809-11.873c-6.668-3.124-14.582-4.687-23.745-4.687
			c-10.832,0-19.635,2.344-26.401,7.03c-6.771,4.687-10.154,11.716-10.154,21.09c0,4.169,0.986,8.176,2.968,12.029
			c1.977,3.857,6.351,7.552,13.123,11.091c6.766,3.545,17.232,6.981,31.4,10.311c24.995,5.623,43.009,14.06,54.052,25.307
			c11.038,11.248,16.559,25.415,16.559,42.491c0,20.831-7.24,36.818-21.715,47.959
			C721.648-3424.949,702.54-3419.379,678.795-3419.379z"/>
		<path d="M840.949-3421.565c-16.247,0.625-29.632-2.915-40.148-10.623c-10.52-7.703-15.778-18.849-15.778-33.43
			c0-10.623,3.227-19.684,9.685-27.182c6.454-7.498,14.787-13.381,24.995-17.653c10.203-4.266,20.723-6.507,31.556-6.717
			c5.414-0.415,10.516,0,15.309,1.25c4.789,1.25,9.06,3.022,12.81,5.311v-13.123c0-9.788-2.085-16.139-6.249-19.058
			c-4.169-2.915-10.31-4.375-18.434-4.375c-5.833,0-11.926,0.732-18.278,2.187c-6.356,1.46-12.551,3.437-18.59,5.936
			c-5.419,2.295-10.052,3.125-13.903,2.5c-3.857-0.625-7.03-3.125-9.529-7.498c-2.5-4.375-3.076-8.592-1.718-12.654
			c1.352-4.062,4.842-7.235,10.466-9.53c7.499-3.539,15.671-6.351,24.526-8.435c8.851-2.08,17.858-3.125,27.026-3.125
			c19.371,0,33.949,3.906,43.741,11.717c9.788,7.81,14.684,21.924,14.684,42.334v69.049c0,2.085,0.259,3.75,0.781,5
			c0.517,1.25,0.986,2.187,1.406,2.812c1.875,2.71,3.906,4.272,6.092,4.687c2.187,0.42,4.11,0.679,5.78,0.781
			c1.665,0.107,2.499,1.094,2.499,2.969c0,3.749-0.991,6.98-2.968,9.685c-1.982,2.71-5.263,4.584-9.841,5.624
			c-4.794,1.04-9.481,1.562-14.06,1.562c-6.458,0-11.404-1.094-14.84-3.281c-3.437-2.187-5.888-5.882-7.342-11.092
			c-5.209,4.375-11.248,7.762-18.122,10.155C855.634-3423.391,848.448-3421.985,840.949-3421.565z M840.324-3452.184
			c11.663-0.415,21.294-2.705,28.9-6.873c7.601-4.165,11.194-10.101,10.779-17.809c-0.21-5-2.763-8.436-7.655-10.311
			c-4.897-1.875-10.989-2.602-18.278-2.187c-10.208,0.21-18.644,2.763-25.308,7.654c-6.668,4.896-9.896,10.365-9.685,16.403
			C819.494-3455.934,826.577-3451.559,840.324-3452.184z"/>
		<path d="M1010.602-3420.315c-14.792,0-26.089-2.71-33.899-8.123c-7.811-5.414-11.717-16.247-11.717-32.493v-82.796h-10.31
			c-12.292,0-18.433-5.101-18.433-15.309c0-4.789,1.299-8.485,3.906-11.092c2.602-2.602,7.342-3.905,14.215-3.905h10.623v-34.368
			c0-12.288,5.936-18.434,17.809-18.434c11.453,0,17.184,6.146,17.184,18.434v34.368h23.12c12.288,0,18.434,4.999,18.434,14.996
			c0,10.208-6.043,15.309-18.121,15.309h-23.432v73.735c0,7.083,1.718,11.873,5.155,14.372c3.437,2.5,8.382,3.749,14.841,3.749
			c6.664,0,11.922,0.782,15.778,2.344c3.852,1.562,5.78,5.575,5.78,12.029c0,5.208-1.513,9.012-4.53,11.404
			c-3.022,2.393-6.873,3.954-11.56,4.686C1020.756-3420.681,1015.806-3420.315,1010.602-3420.315z"/>
		<path d="M1134.014-3420.315c-13.747,0-26.088-3.281-37.023-9.842c-10.935-6.561-19.581-15.724-25.932-27.494
			c-6.357-11.766-9.53-25.566-9.53-41.398c0-15.826,3.173-29.628,9.53-41.397c6.351-11.766,14.997-20.933,25.932-27.494
			c10.935-6.561,23.276-9.842,37.023-9.842c14.162,0,26.714,3.281,37.648,9.842c10.935,6.562,19.527,15.729,25.776,27.494
			c6.249,11.77,9.373,25.571,9.373,41.397c0,15.832-3.124,29.633-9.373,41.398c-6.249,11.77-14.841,20.933-25.776,27.494
			C1160.728-3423.596,1148.177-3420.315,1134.014-3420.315z M1134.014-3452.184c11.038,0,20.045-4.062,27.026-12.185
			c6.976-8.124,10.467-19.684,10.467-34.681c0-14.996-3.491-26.557-10.467-34.68c-6.981-8.123-15.988-12.185-27.026-12.185
			c-10.833,0-19.683,4.062-26.557,12.185c-6.874,8.123-10.31,19.684-10.31,34.68c0,14.997,3.437,26.557,10.31,34.681
			C1114.331-3456.246,1123.181-3452.184,1134.014-3452.184z"/>
		<path d="M1254.928-3423.752c-11.873,0-17.809-6.141-17.809-18.434v-113.415c0-12.288,6.142-18.433,18.434-18.433
			c4.164,0,7.811,0.991,10.935,2.968c3.124,1.982,4.687,5.677,4.687,11.092v7.185c3.749-7.498,9.632-13.536,17.653-18.121
			c8.016-4.579,16.506-6.873,25.464-6.873c6.454,0,11.404,1.718,14.84,5.156c3.437,3.437,5.156,8.074,5.156,13.903
			c0,5.419-1.357,9.373-4.062,11.872c-2.71,2.5-5.834,3.545-9.373,3.125c-1.67-0.205-3.437-0.361-5.311-0.469
			c-1.875-0.102-3.959-0.156-6.249-0.156c-10.208,0-18.902,3.335-26.089,9.998c-7.186,6.668-10.779,16.042-10.779,28.12v64.049
			C1272.424-3429.893,1266.59-3423.752,1254.928-3423.752z"/>
		<path d="M1378.652-3598.717c-6.044,0-11.248-2.187-15.622-6.561c-4.374-4.374-6.561-9.578-6.561-15.621
			c0-6.039,2.187-11.248,6.561-15.623c4.374-4.373,9.578-6.56,15.622-6.56c6.039,0,11.248,2.187,15.622,6.56
			c4.374,4.375,6.561,9.583,6.561,15.623c0,6.043-2.187,11.248-6.561,15.621C1389.9-3600.904,1384.691-3598.717,1378.652-3598.717z
			 M1378.965-3423.752c-11.667,0-17.497-6.141-17.497-18.434v-113.415c0-12.288,5.829-18.433,17.497-18.433
			c11.663,0,17.497,6.146,17.497,18.433v113.415C1396.461-3429.893,1390.627-3423.752,1378.965-3423.752z"/>
	</g>
</g>
<g>
	<path style="fill:#FFFFFF;" d="M1607.685-2980.258c-7.055-30.698-19.912-59.096-38.213-84.406
		c-17.676-24.446-39.661-44.997-65.344-61.08c-25.682-16.084-53.769-26.891-83.479-32.12c-30.76-5.415-61.922-4.583-92.62,2.472
		c-30.698,7.055-59.096,19.912-84.406,38.213c-24.446,17.677-44.997,39.661-61.08,65.344c-9.827,15.692-17.681,32.284-23.5,49.593
		c-4.35,12.349-7.46,25.133-9.344,38.089c-0.118,0.797-0.229,1.595-0.338,2.394c-4.2,28.613-3.019,57.519,3.532,86.024
		c7.055,30.698,19.912,59.096,38.213,84.406c17.676,24.446,39.661,44.997,65.344,61.08c25.682,16.084,53.769,26.891,83.479,32.121
		c30.76,5.415,61.923,4.583,92.62-2.471c14.173-3.257,27.93-7.808,41.119-13.556c3.792-1.475,7.211-2.971,10.174-4.452
		c0.922-0.509,1.869-0.976,2.827-1.431c0.898-0.511,1.806-0.978,2.731-1.44c1.582-0.902,3.188-1.764,4.789-2.647
		c3.802-2.116,7.485-4.446,11.146-6.803c0.504-0.329,1.004-0.664,1.504-0.998c12.107-7.808,23.502-16.746,34.017-26.731
		c14.212-15.154-6.452-28.321-24.19-14.865c-0.904-9.894-1.839-19.918-2.829-21.641c-5.257-9.147-15.371-14.364-25.863-13.257
		c-1.907,0.201-7.394,1.111-11.61,1.519c-0.542,0.052-1.083,0.048-1.619,0.017c-13.284,27.125-43.766,18.973-43.766,18.973
		c32.959-6.543,35.582-23.23,35.582-23.23c0.069-19.045-0.839-61.73-2.985-76.961c-1.408-9.989-7.646-19.504-17.15-23.412
		c-10.935-4.879-23.57-3.617-34.372-8.848c-3.899-1.763-6.353-5.234-8.208-8.953c-0.828-1.66-1.588-3.468-2.084-5.257
		c-0.968-3.495,0.053-7.004,0.985-10.402c1.611,2.781,2.026,9.371,3.665,12.139c0.303,0.511,0.853,0.823,1.447,0.822l0.029,0
		c0.911-0.001,1.66-0.748,1.674-1.66c0.091-6.192-0.538-12.465,1.413-18.451c2.294-7.112,5.571-13.824,8.423-20.706
		c0.68-1.417,0.959-3.788,1.096-6.014c0.123-1.991-1.962-3.36-3.733-2.443c-0.781,0.404-1.562,0.721-2.339,0.689
		c-0.194-4.976,0.473-10.062-0.389-14.977c-3.437-10.475-13.567-16.113-19.698-24.722c-1.208-1.696-1.828-3.744-1.753-5.825
		c0.101-2.807,0.118-5.632-0.991-8.256c-0.15-0.478-0.346-0.926-0.578-1.351c-2.166-3.964-6.453-6.097-10.723-5.91
		c-4.27-0.187-8.557,1.947-10.723,5.91c-0.232,0.425-0.428,0.874-0.578,1.351c-1.109,2.624-1.093,5.449-0.991,8.256
		c0.075,2.08-0.545,4.129-1.752,5.825c-6.131,8.609-16.261,14.247-19.698,24.722c-0.862,4.916-0.194,10.001-0.388,14.977
		c-0.778,0.032-1.558-0.285-2.339-0.689c-1.771-0.917-3.856,0.452-3.733,2.443c0.138,2.227,0.417,4.597,1.096,6.014
		c2.852,6.882,6.129,13.594,8.423,20.706c1.951,5.986,1.322,12.258,1.413,18.451c0.013,0.911,0.762,1.658,1.673,1.66l0.029,0
		c0.594,0.001,1.144-0.311,1.447-0.822c1.639-2.768,2.054-9.357,3.665-12.139c0.932,3.398,1.952,6.908,0.985,10.402
		c-0.495,1.79-1.255,3.597-2.084,5.257c-1.856,3.719-4.31,7.19-8.208,8.953c-10.802,5.231-23.437,3.969-34.372,8.848
		c-9.504,3.908-15.742,13.424-17.15,23.412c-2.147,15.231-3.055,57.917-2.986,76.961c0,0,2.623,16.687,35.582,23.23
		c0,0-30.482,8.153-43.766-18.973c-0.537,0.031-1.077,0.035-1.619-0.017c-4.216-0.408-9.703-1.318-11.61-1.519
		c-9.723-1.026-19.119,3.382-24.628,11.312c-13.758-14.025-25.422-30.141-34.483-47.543c-1.429-2.851-2.751-5.75-4.249-8.561
		c-1.094-2.584-2.096-5.213-3.395-7.703c-2.654-6.928-5.144-13.917-7.35-21.003c-1.598-6.921-3.213-13.845-4.767-20.776
		c-1.476-9.652-2.442-19.397-2.66-29.181c0.057-1.247,0.042-2.501,0.029-3.748c0.061-2.115,0.108-4.22,0.084-6.331
		c0.96-19.749,4.78-39.429,12.037-57.852c8.15-21.23,20.587-40.703,36.01-57.378c5.777-6.233,11.994-12.052,18.503-17.516
		c10.824-8.917,22.509-16.773,34.882-23.366c0.922-0.509,1.872-0.961,2.812-1.427c1.874-1.024,3.763-2.013,5.74-2.827
		c21.711-9.863,40.939-14.111,66.656-16.108c1.489-0.116,3-0.307,4.508-0.169c1.088-0.094,2.193-0.246,3.295-0.109
		c2.28-0.071,4.56-0.111,6.835,0.07c1.877-0.025,3.751,0.075,5.628,0.222c0.83,0.043,1.66,0.087,2.492,0.138
		c6.907,0.381,13.766,1.336,20.582,2.511c4.366,0.746,8.677,1.794,12.994,2.771c1.084,0.298,2.168,0.595,3.261,0.867
		c17.025,4.742,33.295,12.08,48.463,21.076c5.137,2.569,9.605,6.206,14.44,9.265c11.389,8.123,21.828,17.551,31.1,28.02
		c3.424,3.681,6.487,7.687,9.801,11.461c1.978,2.252,5.561-0.114,4.266-2.817l-0.039-0.081
		c-7.366-12.337-18.172-22.102-28.609-31.795c-0.524-0.503-1.061-0.992-1.606-1.473c-1.664-1.47,0.145-4.111,2.123-3.102
		c0.622,0.318,1.243,0.633,1.865,0.934c9.719,6.023,17.69,14.432,24.771,23.319c10.612,13.715,19.446,28.769,26.688,44.508
		c3.753,7.902,6.594,16.185,9.726,24.339c1.583,7.159,3.726,14.243,4.349,21.576c1.193,5.803,1.322,11.733,2.204,17.577
		c1.273,21.923,1.75,44.287-3.44,65.789c-0.759,3.409-2.667,6.96-2.757,10.476c-0.061,2.387,2.814,3.678,4.612,2.107
		c3.351-2.926,5.009-7.694,6.403-11.832c2.791-9.406,3.975-19.208,4.581-28.979c0.162-2.896,0.31-5.789,0.347-8.688
		c0.048-1.05,0.049-2.097,0.069-3.133c0.037-1.063,0.037-2.118,0.061-3.17c0.055-1.255-0.037-2.507-0.12-3.753
		c0.316-9.774-0.967-19.502-1.47-29.236c-1.183-6.813-1.41-13.783-3.091-20.521c-0.483-7.201-2.956-13.983-4.871-20.854
		c0.483-0.548,0.967-1.097,1.459-1.64c1.366,1.014,2.353,2.389,3.21,3.84c1.065,2.356,1.99,4.784,3.224,7.062
		c0.608,2.477,1.544,4.848,2.501,7.213c1.255,4.914,2.288,9.887,3.462,14.827c1.199,4.232,1.085,8.664,2.043,12.935
		c0.13,4.61,1.335,9.208,0.918,13.818l0.16,0.049c0.125,0.713,0.375,2.14,0.5,2.854l-0.814-0.211
		c0.627,0.996,0.589,2.224,0.695,3.363c0.173,4.936,0.052,9.877,0.186,14.814c-1.064,28.647-5.258,57.708-17.162,84.019
		c-4.048,8.148-8.595,16.543-8.811,25.865c0.145,2.608,1.081,4.534,2.275,5.945c2.363,2.793,6.784,2.451,8.682-0.677
		c14.951-24.636,25.102-51.442,30.193-79.756C1615.587-2917.828,1614.806-2949.272,1607.685-2980.258z"/>
	<g>
		<path style="fill:#FFFFFF;" d="M1060.02-2365.384c-15.417,0-29.789-2.656-43.116-7.967c-13.332-5.311-24.79-14.215-34.368-26.713
			c-3.544-4.999-4.74-9.632-3.593-13.904c1.142-4.266,4.218-7.757,9.216-10.467c4.789-2.914,9.163-3.797,13.123-2.656
			c3.954,1.148,7.914,3.906,11.873,8.28c5.624,6.043,12.341,10.73,20.152,14.06c7.811,3.335,17.131,5,27.964,5
			c14.577,0,24.838-2.656,30.775-7.967c5.936-5.311,8.905-12.546,8.905-21.715c0-5.829-1.303-10.828-3.906-14.997
			c-2.607-4.164-8.021-8.069-16.247-11.716c-8.231-3.642-20.884-7.342-37.961-11.092c-20.206-4.789-35.149-12.39-44.835-22.807
			c-9.685-10.413-14.528-23.638-14.528-39.68c0-12.702,3.071-23.901,9.217-33.587c6.141-9.685,14.787-17.233,25.932-22.652
			c11.141-5.413,24.214-8.123,39.211-8.123c15.622,0,29.262,2.71,40.929,8.123c11.663,5.419,21.451,12.395,29.369,20.934
			c3.954,4.374,5.516,8.748,4.686,13.123c-0.835,4.374-3.544,8.333-8.123,11.872c-4.584,3.75-8.958,5.21-13.123,4.375
			c-4.169-0.83-8.333-3.226-12.498-7.186c-5.208-4.79-11.145-8.748-17.808-11.873c-6.668-3.124-14.582-4.687-23.745-4.687
			c-10.832,0-19.635,2.344-26.401,7.03c-6.771,4.687-10.154,11.716-10.154,21.09c0,4.169,0.986,8.176,2.968,12.029
			c1.977,3.857,6.351,7.552,13.123,11.091c6.766,3.545,17.232,6.981,31.4,10.311c24.995,5.624,43.009,14.06,54.052,25.307
			c11.038,11.248,16.559,25.414,16.559,42.491c0,20.831-7.24,36.818-21.715,47.959
			C1102.873-2370.954,1083.765-2365.384,1060.02-2365.384z"/>
		<path style="fill:#FFFFFF;" d="M1222.174-2367.571c-16.247,0.625-29.632-2.915-40.148-10.623
			c-10.52-7.703-15.778-18.849-15.778-33.43c0-10.623,3.227-19.684,9.685-27.182c6.454-7.498,14.787-13.381,24.995-17.653
			c10.203-4.266,20.723-6.507,31.556-6.717c5.414-0.415,10.516,0,15.309,1.25c4.789,1.25,9.061,3.022,12.81,5.311v-13.123
			c0-9.788-2.085-16.139-6.249-19.058c-4.169-2.915-10.31-4.375-18.434-4.375c-5.833,0-11.926,0.732-18.277,2.187
			c-6.356,1.46-12.551,3.437-18.59,5.936c-5.419,2.295-10.052,3.125-13.903,2.5c-3.857-0.625-7.03-3.125-9.53-7.498
			c-2.5-4.375-3.076-8.592-1.718-12.654c1.352-4.063,4.842-7.235,10.466-9.53c7.499-3.54,15.671-6.351,24.526-8.435
			c8.851-2.08,17.858-3.125,27.026-3.125c19.371,0,33.949,3.906,43.741,11.717c9.788,7.81,14.684,21.924,14.684,42.334v69.049
			c0,2.085,0.259,3.75,0.781,5c0.517,1.25,0.986,2.187,1.406,2.812c1.875,2.71,3.906,4.272,6.092,4.687
			c2.187,0.42,4.11,0.679,5.78,0.781c1.665,0.107,2.499,1.094,2.499,2.969c0,3.749-0.991,6.98-2.968,9.685
			c-1.982,2.71-5.263,4.585-9.841,5.625c-4.794,1.04-9.481,1.562-14.06,1.562c-6.458,0-11.404-1.094-14.84-3.281
			c-3.437-2.187-5.888-5.882-7.342-11.092c-5.209,4.375-11.248,7.762-18.122,10.155
			C1236.859-2369.397,1229.673-2367.991,1222.174-2367.571z M1221.549-2398.189c11.663-0.415,21.295-2.705,28.9-6.873
			c7.601-4.165,11.194-10.101,10.779-17.809c-0.21-5-2.763-8.436-7.655-10.311c-4.896-1.875-10.989-2.602-18.277-2.187
			c-10.208,0.21-18.644,2.763-25.308,7.654c-6.668,4.896-9.896,10.365-9.685,16.403
			C1200.719-2401.939,1207.802-2397.564,1221.549-2398.189z"/>
		<path style="fill:#FFFFFF;" d="M1391.827-2366.321c-14.792,0-26.089-2.71-33.899-8.123c-7.811-5.414-11.717-16.247-11.717-32.493
			v-82.796h-10.31c-12.292,0-18.433-5.101-18.433-15.309c0-4.789,1.299-8.485,3.906-11.092c2.602-2.602,7.342-3.904,14.215-3.904
			h10.623v-34.368c0-12.288,5.936-18.434,17.809-18.434c11.453,0,17.184,6.146,17.184,18.434v34.368h23.12
			c12.287,0,18.434,4.998,18.434,14.996c0,10.208-6.044,15.309-18.122,15.309h-23.432v73.735c0,7.083,1.718,11.873,5.155,14.372
			c3.437,2.5,8.382,3.749,14.841,3.749c6.664,0,11.922,0.782,15.778,2.344c3.852,1.562,5.78,5.574,5.78,12.029
			c0,5.208-1.514,9.012-4.531,11.404c-3.022,2.393-6.873,3.954-11.56,4.687C1401.981-2366.687,1397.031-2366.321,1391.827-2366.321z
			"/>
		<path style="fill:#FFFFFF;" d="M1515.239-2366.321c-13.747,0-26.088-3.281-37.023-9.842s-19.581-15.724-25.932-27.494
			c-6.357-11.765-9.529-25.566-9.529-41.398c0-15.826,3.173-29.628,9.529-41.397c6.351-11.766,14.997-20.933,25.932-27.494
			s23.276-9.842,37.023-9.842c14.162,0,26.714,3.281,37.648,9.842c10.935,6.561,19.527,15.728,25.776,27.494
			c6.249,11.77,9.373,25.572,9.373,41.397c0,15.833-3.124,29.633-9.373,41.398c-6.249,11.77-14.841,20.933-25.776,27.494
			C1541.953-2369.601,1529.402-2366.321,1515.239-2366.321z M1515.239-2398.189c11.038,0,20.045-4.062,27.026-12.185
			c6.976-8.124,10.467-19.684,10.467-34.681c0-14.996-3.491-26.557-10.467-34.68c-6.981-8.123-15.988-12.185-27.026-12.185
			c-10.833,0-19.683,4.062-26.557,12.185c-6.874,8.123-10.31,19.684-10.31,34.68c0,14.997,3.437,26.557,10.31,34.681
			C1495.556-2402.251,1504.406-2398.189,1515.239-2398.189z"/>
		<path style="fill:#FFFFFF;" d="M1636.153-2369.757c-11.873,0-17.809-6.141-17.809-18.434v-113.415
			c0-12.288,6.142-18.433,18.434-18.433c4.164,0,7.811,0.991,10.935,2.968c3.124,1.982,4.687,5.677,4.687,11.092v7.185
			c3.749-7.498,9.632-13.536,17.652-18.121c8.016-4.579,16.506-6.873,25.464-6.873c6.454,0,11.404,1.718,14.84,5.156
			c3.437,3.437,5.155,8.074,5.155,13.904c0,5.418-1.357,9.373-4.062,11.872c-2.71,2.5-5.834,3.545-9.373,3.125
			c-1.67-0.205-3.437-0.361-5.311-0.469c-1.875-0.102-3.959-0.156-6.249-0.156c-10.208,0-18.902,3.335-26.089,9.998
			c-7.186,6.668-10.779,16.042-10.779,28.12v64.049C1653.649-2375.898,1647.815-2369.757,1636.153-2369.757z"/>
		<path style="fill:#FFFFFF;" d="M1759.877-2544.722c-6.043,0-11.248-2.187-15.622-6.561c-4.374-4.373-6.561-9.578-6.561-15.621
			c0-6.039,2.187-11.248,6.561-15.622c4.374-4.374,9.578-6.56,15.622-6.56c6.039,0,11.248,2.187,15.622,6.56
			c4.374,4.375,6.561,9.583,6.561,15.622c0,6.043-2.187,11.248-6.561,15.621C1771.125-2546.909,1765.916-2544.722,1759.877-2544.722
			z M1760.19-2369.757c-11.667,0-17.497-6.141-17.497-18.434v-113.415c0-12.288,5.829-18.433,17.497-18.433
			c11.663,0,17.497,6.145,17.497,18.433v113.415C1777.686-2375.898,1771.852-2369.757,1760.19-2369.757z"/>
	</g>
</g>
<g>
	<path d="M659.163-2980.258c-7.055-30.698-19.912-59.096-38.213-84.406c-17.676-24.446-39.661-44.997-65.344-61.08
		c-25.682-16.084-53.769-26.891-83.479-32.12c-30.76-5.415-61.922-4.583-92.62,2.472c-30.698,7.055-59.096,19.912-84.406,38.213
		c-24.446,17.677-44.997,39.661-61.08,65.344c-9.827,15.692-17.681,32.284-23.5,49.593c-4.35,12.349-7.46,25.133-9.344,38.089
		c-0.118,0.797-0.229,1.595-0.338,2.394c-4.2,28.613-3.019,57.519,3.532,86.024c7.055,30.698,19.912,59.096,38.213,84.406
		c17.676,24.446,39.661,44.997,65.343,61.08c25.682,16.084,53.769,26.891,83.479,32.121c30.76,5.415,61.923,4.583,92.62-2.471
		c14.173-3.257,27.93-7.808,41.119-13.556c3.792-1.475,7.211-2.971,10.174-4.452c0.922-0.509,1.869-0.976,2.827-1.431
		c0.898-0.511,1.806-0.978,2.731-1.44c1.581-0.902,3.188-1.764,4.789-2.647c3.802-2.116,7.485-4.446,11.146-6.803
		c0.504-0.329,1.004-0.664,1.504-0.998c12.107-7.808,23.502-16.746,34.017-26.731c14.212-15.154-6.452-28.321-24.19-14.865
		c-0.904-9.894-1.84-19.918-2.829-21.641c-5.257-9.147-15.371-14.364-25.864-13.257c-1.907,0.201-7.394,1.111-11.61,1.519
		c-0.543,0.052-1.083,0.048-1.619,0.017c-13.284,27.125-43.766,18.973-43.766,18.973c32.959-6.543,35.582-23.23,35.582-23.23
		c0.069-19.045-0.839-61.73-2.986-76.961c-1.408-9.989-7.646-19.504-17.15-23.412c-10.935-4.879-23.57-3.617-34.372-8.848
		c-3.899-1.763-6.353-5.234-8.208-8.953c-0.828-1.66-1.588-3.468-2.084-5.257c-0.967-3.495,0.053-7.004,0.985-10.402
		c1.611,2.781,2.026,9.371,3.665,12.139c0.303,0.511,0.853,0.823,1.447,0.822l0.029,0c0.911-0.001,1.66-0.748,1.674-1.66
		c0.091-6.192-0.538-12.465,1.413-18.451c2.294-7.112,5.571-13.824,8.423-20.706c0.68-1.417,0.959-3.788,1.096-6.014
		c0.123-1.991-1.962-3.36-3.733-2.443c-0.781,0.404-1.562,0.721-2.339,0.689c-0.194-4.976,0.473-10.062-0.389-14.977
		c-3.437-10.475-13.567-16.113-19.698-24.722c-1.208-1.696-1.828-3.744-1.753-5.825c0.101-2.807,0.118-5.632-0.991-8.256
		c-0.15-0.478-0.346-0.926-0.578-1.351c-2.166-3.964-6.453-6.097-10.723-5.91c-4.27-0.187-8.556,1.947-10.723,5.91
		c-0.232,0.425-0.428,0.874-0.578,1.351c-1.109,2.624-1.093,5.449-0.991,8.256c0.075,2.08-0.545,4.129-1.752,5.825
		c-6.131,8.609-16.261,14.247-19.698,24.722c-0.862,4.916-0.194,10.001-0.389,14.977c-0.777,0.032-1.558-0.285-2.339-0.689
		c-1.771-0.917-3.856,0.452-3.733,2.443c0.138,2.227,0.417,4.597,1.096,6.014c2.852,6.882,6.129,13.594,8.423,20.706
		c1.951,5.986,1.322,12.258,1.413,18.451c0.013,0.911,0.762,1.658,1.673,1.66l0.029,0c0.594,0.001,1.144-0.311,1.447-0.822
		c1.639-2.768,2.054-9.357,3.665-12.139c0.932,3.398,1.952,6.908,0.985,10.402c-0.495,1.79-1.255,3.597-2.084,5.257
		c-1.856,3.719-4.31,7.19-8.208,8.953c-10.802,5.231-23.437,3.969-34.372,8.848c-9.504,3.908-15.742,13.424-17.15,23.412
		c-2.147,15.231-3.055,57.917-2.986,76.961c0,0,2.623,16.687,35.582,23.23c0,0-30.482,8.153-43.766-18.973
		c-0.537,0.031-1.077,0.035-1.619-0.017c-4.216-0.408-9.703-1.318-11.61-1.519c-9.723-1.026-19.118,3.382-24.628,11.312
		c-13.758-14.025-25.422-30.141-34.483-47.543c-1.429-2.851-2.751-5.75-4.249-8.561c-1.094-2.584-2.096-5.213-3.395-7.703
		c-2.654-6.928-5.144-13.917-7.35-21.003c-1.598-6.921-3.213-13.845-4.767-20.776c-1.476-9.652-2.442-19.397-2.66-29.181
		c0.057-1.247,0.042-2.501,0.029-3.748c0.061-2.115,0.108-4.22,0.084-6.331c0.96-19.749,4.78-39.429,12.037-57.852
		c8.15-21.23,20.587-40.703,36.01-57.378c5.777-6.233,11.994-12.052,18.503-17.516c10.824-8.917,22.509-16.773,34.882-23.366
		c0.922-0.509,1.872-0.961,2.812-1.427c1.874-1.024,3.763-2.013,5.74-2.827c21.711-9.863,40.939-14.111,66.655-16.108
		c1.489-0.116,2.999-0.307,4.508-0.169c1.088-0.094,2.193-0.246,3.295-0.109c2.28-0.071,4.56-0.111,6.835,0.07
		c1.877-0.025,3.751,0.075,5.628,0.222c0.83,0.043,1.66,0.087,2.492,0.138c6.907,0.381,13.766,1.336,20.582,2.511
		c4.366,0.746,8.677,1.794,12.994,2.771c1.084,0.298,2.168,0.595,3.261,0.867c17.025,4.742,33.295,12.08,48.463,21.076
		c5.137,2.569,9.605,6.206,14.44,9.265c11.389,8.123,21.828,17.551,31.1,28.02c3.424,3.681,6.487,7.687,9.801,11.461
		c1.978,2.252,5.561-0.114,4.266-2.817l-0.039-0.081c-7.366-12.337-18.172-22.102-28.609-31.795
		c-0.524-0.503-1.061-0.992-1.606-1.473c-1.664-1.47,0.145-4.111,2.123-3.102c0.622,0.318,1.243,0.633,1.864,0.934
		c9.719,6.023,17.69,14.432,24.771,23.319c10.612,13.715,19.446,28.769,26.688,44.508c3.753,7.902,6.594,16.185,9.726,24.339
		c1.583,7.159,3.726,14.243,4.349,21.576c1.193,5.803,1.322,11.733,2.204,17.577c1.273,21.923,1.75,44.287-3.44,65.789
		c-0.759,3.409-2.668,6.96-2.757,10.476c-0.061,2.387,2.814,3.678,4.612,2.107c3.351-2.926,5.009-7.694,6.403-11.832
		c2.791-9.406,3.975-19.208,4.581-28.979c0.162-2.896,0.31-5.789,0.347-8.688c0.048-1.05,0.049-2.097,0.069-3.133
		c0.037-1.063,0.037-2.118,0.061-3.17c0.055-1.255-0.037-2.507-0.12-3.753c0.316-9.774-0.967-19.502-1.47-29.236
		c-1.183-6.813-1.41-13.783-3.091-20.521c-0.483-7.201-2.956-13.983-4.871-20.854c0.483-0.548,0.967-1.097,1.459-1.64
		c1.366,1.014,2.353,2.389,3.21,3.84c1.065,2.356,1.99,4.784,3.224,7.062c0.608,2.477,1.544,4.848,2.501,7.213
		c1.254,4.914,2.288,9.887,3.462,14.827c1.199,4.232,1.085,8.664,2.043,12.935c0.13,4.61,1.335,9.208,0.918,13.818l0.16,0.049
		c0.125,0.713,0.375,2.14,0.5,2.854l-0.814-0.211c0.627,0.996,0.589,2.224,0.695,3.363c0.174,4.936,0.052,9.877,0.186,14.814
		c-1.064,28.647-5.258,57.708-17.162,84.019c-4.048,8.148-8.595,16.543-8.811,25.865c0.145,2.608,1.081,4.534,2.275,5.945
		c2.363,2.793,6.784,2.451,8.682-0.677c14.951-24.636,25.102-51.442,30.193-79.756
		C667.065-2917.828,666.284-2949.272,659.163-2980.258z"/>
	<g>
		<path d="M111.498-2365.384c-15.417,0-29.789-2.656-43.116-7.967c-13.332-5.311-24.79-14.215-34.368-26.713
			c-3.544-4.999-4.74-9.632-3.593-13.904c1.142-4.266,4.218-7.757,9.216-10.467c4.789-2.914,9.163-3.797,13.123-2.656
			c3.954,1.148,7.914,3.906,11.873,8.28c5.624,6.043,12.341,10.73,20.152,14.06c7.811,3.335,17.131,5,27.963,5
			c14.577,0,24.838-2.656,30.775-7.967c5.936-5.311,8.905-12.546,8.905-21.715c0-5.829-1.303-10.828-3.906-14.997
			c-2.607-4.164-8.021-8.069-16.247-11.716c-8.231-3.642-20.884-7.342-37.961-11.092c-20.206-4.789-35.149-12.39-44.835-22.807
			c-9.685-10.413-14.528-23.638-14.528-39.68c0-12.702,3.071-23.901,9.217-33.587c6.141-9.685,14.787-17.233,25.932-22.652
			c11.141-5.413,24.214-8.123,39.211-8.123c15.622,0,29.262,2.71,40.929,8.123c11.663,5.419,21.451,12.395,29.369,20.934
			c3.954,4.374,5.516,8.748,4.686,13.123c-0.835,4.374-3.544,8.333-8.123,11.872c-4.584,3.75-8.958,5.21-13.123,4.375
			c-4.169-0.83-8.333-3.226-12.498-7.186c-5.208-4.79-11.145-8.748-17.809-11.873c-6.668-3.124-14.582-4.687-23.745-4.687
			c-10.832,0-19.635,2.344-26.401,7.03c-6.771,4.687-10.154,11.716-10.154,21.09c0,4.169,0.986,8.176,2.968,12.029
			c1.977,3.857,6.351,7.552,13.123,11.091c6.766,3.545,17.232,6.981,31.4,10.311c24.995,5.624,43.009,14.06,54.052,25.307
			c11.038,11.248,16.559,25.414,16.559,42.491c0,20.831-7.24,36.818-21.715,47.959
			C154.351-2370.954,135.243-2365.384,111.498-2365.384z"/>
		<path d="M273.653-2367.571c-16.247,0.625-29.632-2.915-40.148-10.623c-10.52-7.703-15.778-18.849-15.778-33.43
			c0-10.623,3.227-19.684,9.685-27.182c6.454-7.498,14.787-13.381,24.995-17.653c10.203-4.266,20.723-6.507,31.556-6.717
			c5.414-0.415,10.516,0,15.309,1.25c4.789,1.25,9.06,3.022,12.81,5.311v-13.123c0-9.788-2.085-16.139-6.249-19.058
			c-4.169-2.915-10.31-4.375-18.434-4.375c-5.833,0-11.926,0.732-18.278,2.187c-6.356,1.46-12.551,3.437-18.59,5.936
			c-5.419,2.295-10.051,3.125-13.903,2.5c-3.857-0.625-7.03-3.125-9.529-7.498c-2.5-4.375-3.076-8.592-1.718-12.654
			c1.352-4.063,4.842-7.235,10.466-9.53c7.499-3.54,15.671-6.351,24.526-8.435c8.851-2.08,17.858-3.125,27.026-3.125
			c19.371,0,33.949,3.906,43.741,11.717c9.788,7.81,14.684,21.924,14.684,42.334v69.049c0,2.085,0.259,3.75,0.781,5
			c0.517,1.25,0.986,2.187,1.406,2.812c1.875,2.71,3.906,4.272,6.092,4.687c2.187,0.42,4.11,0.679,5.78,0.781
			c1.665,0.107,2.499,1.094,2.499,2.969c0,3.749-0.991,6.98-2.968,9.685c-1.982,2.71-5.263,4.585-9.841,5.625
			c-4.794,1.04-9.481,1.562-14.06,1.562c-6.458,0-11.404-1.094-14.84-3.281c-3.437-2.187-5.888-5.882-7.342-11.092
			c-5.209,4.375-11.248,7.762-18.122,10.155C288.337-2369.397,281.151-2367.991,273.653-2367.571z M273.028-2398.189
			c11.663-0.415,21.294-2.705,28.9-6.873c7.601-4.165,11.194-10.101,10.779-17.809c-0.21-5-2.763-8.436-7.655-10.311
			c-4.897-1.875-10.989-2.602-18.277-2.187c-10.208,0.21-18.644,2.763-25.308,7.654c-6.668,4.896-9.896,10.365-9.685,16.403
			C252.197-2401.939,259.281-2397.564,273.028-2398.189z"/>
		<path d="M443.306-2366.321c-14.792,0-26.089-2.71-33.899-8.123c-7.811-5.414-11.717-16.247-11.717-32.493v-82.796h-10.31
			c-12.292,0-18.433-5.101-18.433-15.309c0-4.789,1.299-8.485,3.906-11.092c2.602-2.602,7.342-3.904,14.215-3.904h10.623v-34.368
			c0-12.288,5.936-18.434,17.809-18.434c11.453,0,17.184,6.146,17.184,18.434v34.368h23.12c12.288,0,18.434,4.998,18.434,14.996
			c0,10.208-6.044,15.309-18.122,15.309h-23.432v73.735c0,7.083,1.718,11.873,5.155,14.372c3.437,2.5,8.382,3.749,14.841,3.749
			c6.664,0,11.922,0.782,15.778,2.344c3.852,1.562,5.78,5.574,5.78,12.029c0,5.208-1.514,9.012-4.531,11.404
			c-3.022,2.393-6.873,3.954-11.56,4.687C453.459-2366.687,448.509-2366.321,443.306-2366.321z"/>
		<path d="M566.718-2366.321c-13.747,0-26.088-3.281-37.023-9.842c-10.935-6.561-19.581-15.724-25.932-27.494
			c-6.357-11.765-9.529-25.566-9.529-41.398c0-15.826,3.173-29.628,9.529-41.397c6.351-11.766,14.997-20.933,25.932-27.494
			c10.935-6.561,23.276-9.842,37.023-9.842c14.162,0,26.714,3.281,37.648,9.842c10.935,6.561,19.527,15.728,25.776,27.494
			c6.249,11.77,9.373,25.572,9.373,41.397c0,15.833-3.124,29.633-9.373,41.398c-6.249,11.77-14.841,20.933-25.776,27.494
			C593.431-2369.601,580.88-2366.321,566.718-2366.321z M566.718-2398.189c11.038,0,20.045-4.062,27.026-12.185
			c6.976-8.124,10.467-19.684,10.467-34.681c0-14.996-3.491-26.557-10.467-34.68c-6.981-8.123-15.988-12.185-27.026-12.185
			c-10.833,0-19.683,4.062-26.557,12.185s-10.31,19.684-10.31,34.68c0,14.997,3.437,26.557,10.31,34.681
			C547.034-2402.251,555.885-2398.189,566.718-2398.189z"/>
		<path d="M687.631-2369.757c-11.873,0-17.809-6.141-17.809-18.434v-113.415c0-12.288,6.142-18.433,18.434-18.433
			c4.164,0,7.811,0.991,10.935,2.968c3.124,1.982,4.686,5.677,4.686,11.092v7.185c3.749-7.498,9.632-13.536,17.653-18.121
			c8.016-4.579,16.506-6.873,25.464-6.873c6.454,0,11.404,1.718,14.84,5.156c3.437,3.437,5.155,8.074,5.155,13.904
			c0,5.418-1.357,9.373-4.062,11.872c-2.71,2.5-5.834,3.545-9.373,3.125c-1.67-0.205-3.437-0.361-5.311-0.469
			c-1.875-0.102-3.959-0.156-6.249-0.156c-10.208,0-18.902,3.335-26.089,9.998c-7.186,6.668-10.779,16.042-10.779,28.12v64.049
			C705.128-2375.898,699.294-2369.757,687.631-2369.757z"/>
		<path d="M811.355-2544.722c-6.044,0-11.248-2.187-15.622-6.561c-4.374-4.373-6.561-9.578-6.561-15.621
			c0-6.039,2.187-11.248,6.561-15.622c4.374-4.374,9.578-6.56,15.622-6.56c6.039,0,11.248,2.187,15.622,6.56
			c4.374,4.375,6.561,9.583,6.561,15.622c0,6.043-2.187,11.248-6.561,15.621C822.603-2546.909,817.394-2544.722,811.355-2544.722z
			 M811.668-2369.757c-11.667,0-17.497-6.141-17.497-18.434v-113.415c0-12.288,5.829-18.433,17.497-18.433
			c11.663,0,17.497,6.145,17.497,18.433v113.415C829.164-2375.898,823.331-2369.757,811.668-2369.757z"/>
	</g>
</g>
<path style="fill:#FFFFFF;" d="M1062.478-2034.995c-7.055-30.697-19.912-59.096-38.213-84.406
	c-17.676-24.446-39.661-44.997-65.344-61.08c-25.682-16.084-53.769-26.891-83.479-32.12c-30.76-5.415-61.923-4.583-92.62,2.472
	c-30.698,7.055-59.096,19.912-84.406,38.213c-24.446,17.677-44.997,39.661-61.08,65.344c-9.827,15.692-17.681,32.284-23.5,49.593
	c-4.35,12.349-7.46,25.133-9.344,38.089c-0.118,0.797-0.229,1.595-0.338,2.394c-4.2,28.613-3.019,57.519,3.532,86.024
	c7.055,30.698,19.912,59.096,38.213,84.406c17.676,24.446,39.661,44.997,65.343,61.08c25.682,16.084,53.769,26.891,83.479,32.121
	c30.76,5.415,61.923,4.583,92.62-2.472c14.173-3.257,27.93-7.808,41.119-13.556c3.792-1.475,7.211-2.971,10.174-4.452
	c0.922-0.509,1.869-0.976,2.827-1.431c0.898-0.511,1.806-0.978,2.731-1.44c1.581-0.902,3.188-1.764,4.789-2.647
	c3.802-2.116,7.485-4.446,11.146-6.803c0.504-0.329,1.004-0.663,1.504-0.998c12.107-7.808,23.502-16.745,34.017-26.731
	c14.212-15.154-6.452-28.321-24.19-14.865c-0.904-9.894-1.839-19.919-2.829-21.641c-5.257-9.147-15.371-14.364-25.863-13.257
	c-1.907,0.201-7.394,1.111-11.61,1.519c-0.543,0.052-1.083,0.048-1.619,0.017c-13.284,27.125-43.766,18.973-43.766,18.973
	c32.959-6.543,35.582-23.23,35.582-23.23c0.069-19.045-0.839-61.73-2.986-76.961c-1.408-9.989-7.646-19.504-17.15-23.412
	c-10.935-4.879-23.57-3.617-34.372-8.848c-3.899-1.764-6.353-5.234-8.208-8.953c-0.828-1.66-1.588-3.468-2.084-5.257
	c-0.967-3.495,0.053-7.004,0.985-10.402c1.611,2.781,2.026,9.371,3.665,12.139c0.303,0.511,0.853,0.823,1.447,0.822h0.029
	c0.911-0.002,1.66-0.748,1.674-1.66c0.091-6.192-0.538-12.465,1.413-18.451c2.294-7.112,5.571-13.824,8.423-20.706
	c0.68-1.417,0.959-3.787,1.096-6.014c0.123-1.991-1.962-3.36-3.733-2.443c-0.781,0.404-1.562,0.721-2.339,0.689
	c-0.194-4.976,0.473-10.062-0.389-14.977c-3.437-10.475-13.567-16.113-19.698-24.722c-1.208-1.696-1.828-3.744-1.753-5.825
	c0.101-2.807,0.118-5.632-0.991-8.256c-0.15-0.478-0.346-0.926-0.578-1.351c-2.166-3.964-6.453-6.097-10.723-5.91
	c-4.27-0.187-8.557,1.947-10.723,5.91c-0.232,0.425-0.428,0.874-0.578,1.351c-1.109,2.624-1.093,5.449-0.991,8.256
	c0.075,2.08-0.545,4.129-1.753,5.825c-6.131,8.608-16.261,14.247-19.698,24.722c-0.862,4.916-0.194,10.001-0.388,14.977
	c-0.778,0.032-1.558-0.285-2.339-0.689c-1.771-0.917-3.856,0.452-3.733,2.443c0.138,2.227,0.417,4.597,1.096,6.014
	c2.852,6.882,6.129,13.594,8.423,20.706c1.951,5.986,1.322,12.258,1.413,18.451c0.013,0.911,0.762,1.658,1.674,1.66h0.029
	c0.594,0.001,1.144-0.31,1.447-0.822c1.639-2.768,2.054-9.357,3.665-12.139c0.932,3.398,1.952,6.908,0.985,10.402
	c-0.495,1.79-1.255,3.597-2.084,5.257c-1.856,3.719-4.31,7.19-8.208,8.953c-10.802,5.231-23.437,3.969-34.372,8.848
	c-9.504,3.908-15.742,13.424-17.15,23.412c-2.147,15.231-3.055,57.917-2.986,76.961c0,0,2.623,16.687,35.582,23.23
	c0,0-30.482,8.153-43.766-18.973c-0.537,0.031-1.077,0.035-1.619-0.017c-4.216-0.408-9.703-1.318-11.61-1.519
	c-9.723-1.026-19.118,3.382-24.628,11.313c-13.758-14.025-25.422-30.141-34.483-47.544c-1.429-2.851-2.751-5.75-4.248-8.561
	c-1.094-2.584-2.096-5.213-3.395-7.703c-2.655-6.928-5.144-13.917-7.35-21.003c-1.598-6.921-3.213-13.845-4.767-20.776
	c-1.476-9.652-2.442-19.397-2.66-29.181c0.057-1.247,0.042-2.502,0.029-3.748c0.061-2.115,0.108-4.22,0.084-6.331
	c0.96-19.749,4.78-39.429,12.037-57.853c8.15-21.23,20.587-40.703,36.01-57.378c5.777-6.233,11.994-12.052,18.503-17.516
	c10.824-8.917,22.509-16.773,34.882-23.366c0.922-0.509,1.872-0.961,2.812-1.427c1.874-1.024,3.763-2.013,5.74-2.827
	c21.711-9.863,40.939-14.111,66.656-16.108c1.489-0.116,2.999-0.307,4.508-0.169c1.088-0.094,2.193-0.246,3.295-0.109
	c2.28-0.071,4.56-0.111,6.835,0.07c1.877-0.025,3.751,0.075,5.628,0.222c0.83,0.043,1.66,0.087,2.492,0.138
	c6.907,0.381,13.766,1.336,20.582,2.511c4.366,0.746,8.677,1.794,12.994,2.771c1.084,0.298,2.168,0.595,3.261,0.867
	c17.025,4.742,33.295,12.08,48.463,21.076c5.137,2.569,9.605,6.205,14.44,9.265c11.389,8.123,21.828,17.551,31.1,28.02
	c3.424,3.681,6.487,7.688,9.801,11.461c1.978,2.252,5.561-0.114,4.266-2.817l-0.039-0.081
	c-7.366-12.336-18.171-22.101-28.609-31.795c-0.524-0.503-1.061-0.992-1.606-1.473c-1.664-1.47,0.145-4.111,2.123-3.102
	c0.622,0.318,1.243,0.633,1.864,0.934c9.719,6.023,17.69,14.432,24.771,23.319c10.612,13.715,19.446,28.769,26.688,44.508
	c3.753,7.902,6.594,16.185,9.726,24.339c1.583,7.159,3.726,14.243,4.349,21.576c1.193,5.803,1.322,11.734,2.204,17.577
	c1.273,21.923,1.75,44.287-3.44,65.79c-0.759,3.409-2.668,6.96-2.757,10.475c-0.061,2.387,2.814,3.678,4.612,2.107
	c3.351-2.926,5.009-7.694,6.403-11.832c2.791-9.406,3.975-19.208,4.581-28.979c0.162-2.896,0.31-5.789,0.347-8.688
	c0.048-1.05,0.049-2.097,0.069-3.133c0.037-1.063,0.037-2.118,0.061-3.17c0.055-1.255-0.037-2.507-0.12-3.753
	c0.316-9.774-0.967-19.502-1.47-29.236c-1.183-6.813-1.41-13.783-3.091-20.521c-0.483-7.201-2.956-13.983-4.871-20.854
	c0.483-0.549,0.967-1.097,1.459-1.64c1.366,1.014,2.353,2.389,3.21,3.84c1.065,2.356,1.99,4.784,3.224,7.062
	c0.608,2.477,1.544,4.848,2.501,7.213c1.255,4.914,2.288,9.887,3.462,14.827c1.199,4.232,1.085,8.664,2.043,12.935
	c0.13,4.61,1.335,9.208,0.918,13.818l0.16,0.049c0.125,0.713,0.375,2.14,0.5,2.854l-0.814-0.211
	c0.627,0.996,0.589,2.224,0.695,3.363c0.173,4.936,0.052,9.877,0.186,14.814c-1.064,28.647-5.258,57.708-17.162,84.019
	c-4.048,8.148-8.595,16.544-8.811,25.865c0.145,2.608,1.081,4.534,2.275,5.945c2.363,2.793,6.784,2.451,8.682-0.677
	c14.951-24.636,25.102-51.442,30.193-79.756C1070.38-1972.565,1069.599-2004.01,1062.478-2034.995z"/>
<path d="M490.783-2034.995c-7.055-30.697-19.912-59.096-38.213-84.406c-17.676-24.446-39.661-44.997-65.344-61.08
	c-25.682-16.084-53.769-26.891-83.479-32.12c-30.76-5.415-61.922-4.583-92.62,2.472c-30.698,7.055-59.096,19.912-84.406,38.213
	c-24.446,17.677-44.997,39.661-61.08,65.344c-9.827,15.692-17.681,32.284-23.5,49.593c-4.35,12.349-7.46,25.133-9.344,38.089
	c-0.118,0.797-0.229,1.595-0.338,2.394c-4.2,28.613-3.019,57.519,3.532,86.024c7.055,30.698,19.912,59.096,38.213,84.406
	c17.676,24.446,39.661,44.997,65.343,61.08c25.682,16.084,53.769,26.891,83.479,32.121c30.761,5.415,61.923,4.583,92.62-2.472
	c14.173-3.257,27.93-7.808,41.119-13.556c3.791-1.475,7.211-2.971,10.174-4.452c0.922-0.509,1.869-0.976,2.827-1.431
	c0.898-0.511,1.806-0.978,2.731-1.44c1.581-0.902,3.188-1.764,4.789-2.647c3.802-2.116,7.485-4.446,11.146-6.803
	c0.504-0.329,1.004-0.663,1.504-0.998c12.107-7.808,23.502-16.745,34.017-26.731c14.212-15.154-6.452-28.321-24.19-14.865
	c-0.904-9.894-1.84-19.919-2.829-21.641c-5.257-9.147-15.371-14.364-25.863-13.257c-1.907,0.201-7.394,1.111-11.61,1.519
	c-0.543,0.052-1.082,0.048-1.619,0.017c-13.284,27.125-43.766,18.973-43.766,18.973c32.959-6.543,35.582-23.23,35.582-23.23
	c0.069-19.045-0.839-61.73-2.986-76.961c-1.408-9.989-7.646-19.504-17.15-23.412c-10.935-4.879-23.57-3.617-34.372-8.848
	c-3.899-1.764-6.353-5.234-8.208-8.953c-0.828-1.66-1.588-3.468-2.084-5.257c-0.967-3.495,0.053-7.004,0.985-10.402
	c1.611,2.781,2.026,9.371,3.665,12.139c0.303,0.511,0.853,0.823,1.447,0.822h0.029c0.911-0.002,1.66-0.748,1.674-1.66
	c0.091-6.192-0.538-12.465,1.413-18.451c2.294-7.112,5.571-13.824,8.423-20.706c0.68-1.417,0.959-3.787,1.096-6.014
	c0.123-1.991-1.962-3.36-3.733-2.443c-0.781,0.404-1.562,0.721-2.339,0.689c-0.194-4.976,0.473-10.062-0.389-14.977
	c-3.437-10.475-13.567-16.113-19.698-24.722c-1.208-1.696-1.828-3.744-1.753-5.825c0.101-2.807,0.118-5.632-0.991-8.256
	c-0.15-0.478-0.346-0.926-0.578-1.351c-2.166-3.964-6.453-6.097-10.723-5.91c-4.27-0.187-8.557,1.947-10.723,5.91
	c-0.232,0.425-0.428,0.874-0.578,1.351c-1.109,2.624-1.093,5.449-0.991,8.256c0.075,2.08-0.545,4.129-1.752,5.825
	c-6.131,8.608-16.261,14.247-19.698,24.722c-0.862,4.916-0.194,10.001-0.389,14.977c-0.778,0.032-1.558-0.285-2.339-0.689
	c-1.771-0.917-3.856,0.452-3.733,2.443c0.138,2.227,0.417,4.597,1.096,6.014c2.852,6.882,6.129,13.594,8.423,20.706
	c1.951,5.986,1.322,12.258,1.413,18.451c0.013,0.911,0.762,1.658,1.674,1.66h0.029c0.594,0.001,1.144-0.31,1.447-0.822
	c1.639-2.768,2.054-9.357,3.665-12.139c0.932,3.398,1.952,6.908,0.985,10.402c-0.495,1.79-1.255,3.597-2.084,5.257
	c-1.856,3.719-4.31,7.19-8.208,8.953c-10.802,5.231-23.437,3.969-34.372,8.848c-9.504,3.908-15.742,13.424-17.15,23.412
	c-2.147,15.231-3.055,57.917-2.986,76.961c0,0,2.623,16.687,35.582,23.23c0,0-30.482,8.153-43.766-18.973
	c-0.537,0.031-1.077,0.035-1.619-0.017c-4.216-0.408-9.703-1.318-11.61-1.519c-9.723-1.026-19.118,3.382-24.628,11.313
	c-13.758-14.025-25.422-30.141-34.483-47.544c-1.429-2.851-2.751-5.75-4.248-8.561c-1.094-2.584-2.096-5.213-3.395-7.703
	c-2.654-6.928-5.144-13.917-7.35-21.003c-1.598-6.921-3.213-13.845-4.767-20.776c-1.476-9.652-2.442-19.397-2.66-29.181
	c0.057-1.247,0.042-2.502,0.029-3.748c0.061-2.115,0.108-4.22,0.084-6.331c0.96-19.749,4.78-39.429,12.037-57.853
	c8.15-21.23,20.587-40.703,36.01-57.378c5.777-6.233,11.994-12.052,18.503-17.516c10.824-8.917,22.509-16.773,34.882-23.366
	c0.922-0.509,1.872-0.961,2.812-1.427c1.874-1.024,3.763-2.013,5.74-2.827c21.711-9.863,40.939-14.111,66.656-16.108
	c1.489-0.116,2.999-0.307,4.508-0.169c1.088-0.094,2.193-0.246,3.295-0.109c2.28-0.071,4.56-0.111,6.835,0.07
	c1.877-0.025,3.751,0.075,5.628,0.222c0.83,0.043,1.66,0.087,2.492,0.138c6.907,0.381,13.766,1.336,20.582,2.511
	c4.366,0.746,8.677,1.794,12.994,2.771c1.084,0.298,2.168,0.595,3.261,0.867c17.025,4.742,33.295,12.08,48.463,21.076
	c5.137,2.569,9.605,6.205,14.44,9.265c11.389,8.123,21.828,17.551,31.1,28.02c3.424,3.681,6.487,7.688,9.801,11.461
	c1.978,2.252,5.561-0.114,4.266-2.817l-0.039-0.081c-7.366-12.336-18.171-22.101-28.609-31.795
	c-0.524-0.503-1.061-0.992-1.606-1.473c-1.664-1.47,0.145-4.111,2.123-3.102c0.622,0.318,1.243,0.633,1.864,0.934
	c9.719,6.023,17.69,14.432,24.771,23.319c10.612,13.715,19.446,28.769,26.688,44.508c3.753,7.902,6.594,16.185,9.726,24.339
	c1.583,7.159,3.726,14.243,4.349,21.576c1.193,5.803,1.322,11.734,2.204,17.577c1.273,21.923,1.75,44.287-3.44,65.79
	c-0.759,3.409-2.668,6.96-2.757,10.475c-0.061,2.387,2.814,3.678,4.612,2.107c3.351-2.926,5.009-7.694,6.403-11.832
	c2.791-9.406,3.975-19.208,4.581-28.979c0.162-2.896,0.31-5.789,0.347-8.688c0.048-1.05,0.049-2.097,0.069-3.133
	c0.037-1.063,0.037-2.118,0.061-3.17c0.055-1.255-0.037-2.507-0.121-3.753c0.316-9.774-0.967-19.502-1.47-29.236
	c-1.183-6.813-1.41-13.783-3.091-20.521c-0.483-7.201-2.956-13.983-4.871-20.854c0.483-0.549,0.967-1.097,1.459-1.64
	c1.366,1.014,2.353,2.389,3.21,3.84c1.065,2.356,1.99,4.784,3.224,7.062c0.608,2.477,1.544,4.848,2.501,7.213
	c1.254,4.914,2.288,9.887,3.462,14.827c1.199,4.232,1.085,8.664,2.043,12.935c0.13,4.61,1.335,9.208,0.918,13.818l0.16,0.049
	c0.125,0.713,0.375,2.14,0.5,2.854l-0.814-0.211c0.627,0.996,0.589,2.224,0.695,3.363c0.173,4.936,0.052,9.877,0.186,14.814
	c-1.064,28.647-5.258,57.708-17.162,84.019c-4.048,8.148-8.595,16.544-8.811,25.865c0.145,2.608,1.081,4.534,2.275,5.945
	c2.363,2.793,6.784,2.451,8.682-0.677c14.951-24.636,25.102-51.442,30.193-79.756
	C498.685-1972.565,497.904-2004.01,490.783-2034.995z"/>
<rect y="0" width="2560" height="1538"/>
<g>
	<path style="fill:#FFFFFF;" d="M1055.365,716.74c-7.055-30.697-19.912-59.096-38.213-84.406
		c-17.676-24.446-39.661-44.997-65.344-61.08c-25.682-16.084-53.769-26.891-83.479-32.121c-30.76-5.415-61.922-4.583-92.62,2.472
		c-30.698,7.055-59.096,19.912-84.406,38.213c-24.446,17.676-44.997,39.661-61.08,65.344c-9.827,15.692-17.681,32.284-23.5,49.593
		c-4.35,12.349-7.46,25.133-9.344,38.089c-0.118,0.797-0.229,1.595-0.338,2.394c-4.2,28.613-3.019,57.519,3.532,86.024
		c7.055,30.698,19.912,59.096,38.213,84.406c17.676,24.446,39.661,44.997,65.343,61.08c25.682,16.084,53.769,26.891,83.479,32.121
		c30.761,5.415,61.923,4.584,92.62-2.471c14.173-3.257,27.93-7.808,41.119-13.556c3.791-1.475,7.211-2.971,10.174-4.452
		c0.922-0.509,1.869-0.976,2.827-1.431c0.898-0.511,1.806-0.978,2.731-1.44c1.581-0.902,3.188-1.764,4.789-2.647
		c3.802-2.116,7.485-4.446,11.146-6.803c0.504-0.329,1.004-0.663,1.504-0.998c12.107-7.808,23.502-16.745,34.017-26.731
		c14.212-15.154-6.452-28.321-24.19-14.865c-0.904-9.894-1.84-19.919-2.829-21.641c-5.257-9.147-15.371-14.364-25.863-13.257
		c-1.907,0.201-7.394,1.111-11.61,1.519c-0.543,0.052-1.083,0.048-1.619,0.017c-13.284,27.125-43.766,18.973-43.766,18.973
		c32.959-6.543,35.582-23.23,35.582-23.23c0.069-19.045-0.839-61.73-2.985-76.961c-1.408-9.989-7.646-19.504-17.15-23.412
		c-10.935-4.879-23.57-3.617-34.372-8.848c-3.899-1.763-6.353-5.234-8.208-8.953c-0.828-1.66-1.588-3.468-2.084-5.257
		c-0.967-3.495,0.053-7.004,0.985-10.402c1.611,2.781,2.026,9.371,3.665,12.139c0.303,0.511,0.853,0.823,1.447,0.822l0.029,0
		c0.911-0.002,1.66-0.748,1.674-1.66c0.091-6.192-0.538-12.465,1.413-18.451c2.294-7.112,5.571-13.824,8.423-20.706
		c0.68-1.417,0.959-3.787,1.096-6.014c0.123-1.991-1.962-3.36-3.733-2.443c-0.781,0.404-1.562,0.721-2.339,0.689
		c-0.194-4.976,0.473-10.062-0.388-14.977c-3.437-10.475-13.567-16.113-19.698-24.722c-1.208-1.696-1.828-3.744-1.753-5.825
		c0.102-2.807,0.118-5.632-0.991-8.256c-0.15-0.477-0.346-0.926-0.578-1.351c-2.166-3.964-6.453-6.097-10.723-5.91
		c-4.27-0.187-8.557,1.947-10.723,5.91c-0.232,0.425-0.428,0.874-0.578,1.351c-1.109,2.624-1.093,5.449-0.991,8.256
		c0.075,2.08-0.545,4.129-1.753,5.825c-6.131,8.609-16.261,14.247-19.698,24.722c-0.862,4.915-0.194,10.001-0.389,14.977
		c-0.777,0.032-1.558-0.285-2.339-0.689c-1.771-0.917-3.856,0.452-3.733,2.443c0.138,2.227,0.417,4.597,1.096,6.014
		c2.852,6.882,6.129,13.594,8.423,20.706c1.951,5.986,1.322,12.258,1.413,18.451c0.013,0.911,0.762,1.658,1.673,1.66l0.029,0
		c0.594,0.001,1.144-0.31,1.447-0.822c1.639-2.768,2.054-9.357,3.665-12.139c0.932,3.398,1.952,6.908,0.985,10.402
		c-0.495,1.79-1.255,3.597-2.084,5.257c-1.856,3.719-4.31,7.19-8.208,8.953c-10.802,5.231-23.437,3.969-34.372,8.848
		c-9.503,3.908-15.742,13.424-17.15,23.412c-2.147,15.231-3.055,57.917-2.986,76.961c0,0,2.623,16.687,35.582,23.23
		c0,0-30.482,8.153-43.766-18.973c-0.537,0.031-1.077,0.035-1.619-0.017c-4.216-0.408-9.703-1.318-11.61-1.519
		c-9.723-1.026-19.118,3.382-24.628,11.313c-13.758-14.025-25.422-30.141-34.483-47.544c-1.429-2.851-2.751-5.75-4.248-8.561
		c-1.094-2.584-2.096-5.213-3.395-7.703c-2.654-6.928-5.144-13.917-7.35-21.003c-1.598-6.921-3.213-13.845-4.767-20.776
		c-1.476-9.652-2.442-19.397-2.66-29.181c0.057-1.247,0.042-2.502,0.029-3.748c0.061-2.115,0.108-4.22,0.084-6.331
		c0.96-19.749,4.78-39.429,12.037-57.852c8.15-21.23,20.587-40.703,36.01-57.378c5.777-6.233,11.994-12.052,18.503-17.516
		c10.824-8.916,22.509-16.773,34.882-23.366c0.922-0.509,1.872-0.962,2.812-1.427c1.874-1.024,3.763-2.013,5.74-2.827
		c21.711-9.863,40.939-14.111,66.656-16.108c1.489-0.116,2.999-0.307,4.508-0.169c1.088-0.094,2.193-0.246,3.295-0.109
		c2.28-0.071,4.56-0.111,6.835,0.069c1.877-0.025,3.751,0.075,5.628,0.222c0.83,0.044,1.66,0.087,2.492,0.138
		c6.907,0.381,13.766,1.336,20.582,2.511c4.366,0.746,8.677,1.794,12.994,2.771c1.084,0.298,2.168,0.595,3.261,0.867
		c17.025,4.742,33.295,12.08,48.463,21.076c5.137,2.569,9.605,6.206,14.44,9.266c11.389,8.123,21.828,17.551,31.1,28.02
		c3.424,3.681,6.487,7.687,9.801,11.461c1.978,2.252,5.561-0.114,4.266-2.817l-0.039-0.081
		c-7.366-12.336-18.171-22.101-28.609-31.795c-0.524-0.503-1.061-0.992-1.606-1.473c-1.664-1.47,0.145-4.111,2.123-3.102
		c0.622,0.318,1.243,0.633,1.864,0.934c9.719,6.023,17.69,14.432,24.771,23.319c10.612,13.715,19.446,28.768,26.688,44.508
		c3.753,7.902,6.594,16.185,9.726,24.339c1.583,7.159,3.726,14.243,4.349,21.576c1.193,5.803,1.322,11.734,2.204,17.577
		c1.273,21.923,1.75,44.287-3.44,65.789c-0.759,3.409-2.668,6.96-2.757,10.475c-0.061,2.387,2.814,3.678,4.612,2.107
		c3.351-2.926,5.009-7.694,6.403-11.832c2.791-9.406,3.975-19.208,4.581-28.979c0.162-2.896,0.31-5.789,0.347-8.688
		c0.048-1.05,0.049-2.097,0.069-3.133c0.037-1.063,0.037-2.118,0.061-3.17c0.055-1.255-0.037-2.507-0.12-3.753
		c0.316-9.774-0.967-19.502-1.47-29.236c-1.183-6.813-1.41-13.783-3.091-20.521c-0.483-7.201-2.956-13.983-4.871-20.854
		c0.483-0.549,0.967-1.097,1.459-1.64c1.366,1.014,2.353,2.388,3.21,3.84c1.065,2.357,1.99,4.784,3.224,7.063
		c0.608,2.477,1.544,4.848,2.501,7.213c1.255,4.914,2.288,9.887,3.462,14.827c1.199,4.232,1.085,8.664,2.043,12.935
		c0.13,4.61,1.335,9.208,0.918,13.818l0.16,0.049c0.125,0.713,0.375,2.14,0.5,2.854l-0.814-0.211
		c0.627,0.996,0.589,2.224,0.695,3.363c0.173,4.936,0.052,9.877,0.186,14.814c-1.064,28.647-5.258,57.708-17.162,84.019
		c-4.048,8.148-8.595,16.544-8.811,25.865c0.145,2.608,1.081,4.534,2.275,5.945c2.363,2.793,6.784,2.451,8.682-0.677
		c14.951-24.636,25.102-51.442,30.193-79.756C1063.267,779.169,1062.486,747.725,1055.365,716.74z"/>
	<g>
		<path style="fill:#FFFFFF;" d="M1243.377,883.352c-15.417,0-29.789-2.656-43.116-7.967c-13.332-5.311-24.79-14.215-34.368-26.713
			c-3.544-4.998-4.74-9.632-3.593-13.904c1.142-4.266,4.218-7.757,9.216-10.467c4.789-2.914,9.163-3.797,13.123-2.656
			c3.954,1.148,7.914,3.906,11.873,8.28c5.624,6.044,12.341,10.73,20.152,14.059c7.811,3.335,17.13,5,27.964,5
			c14.577,0,24.838-2.656,30.775-7.967c5.936-5.311,8.905-12.546,8.905-21.715c0-5.829-1.303-10.828-3.906-14.997
			c-2.607-4.163-8.021-8.069-16.247-11.716c-8.231-3.642-20.884-7.342-37.961-11.092c-20.206-4.789-35.149-12.39-44.835-22.807
			c-9.685-10.413-14.528-23.638-14.528-39.68c0-12.702,3.071-23.901,9.217-33.587c6.141-9.685,14.787-17.233,25.932-22.651
			c11.141-5.413,24.214-8.123,39.211-8.123c15.622,0,29.262,2.71,40.929,8.123c11.663,5.419,21.451,12.395,29.369,20.934
			c3.954,4.373,5.516,8.748,4.687,13.123c-0.835,4.373-3.544,8.333-8.123,11.872c-4.584,3.75-8.958,5.21-13.123,4.375
			c-4.169-0.83-8.333-3.227-12.498-7.186c-5.208-4.789-11.145-8.748-17.809-11.873c-6.668-3.124-14.582-4.687-23.745-4.687
			c-10.832,0-19.635,2.344-26.401,7.03c-6.771,4.686-10.154,11.716-10.154,21.09c0,4.169,0.986,8.176,2.968,12.029
			c1.977,3.857,6.351,7.552,13.123,11.091c6.766,3.545,17.232,6.981,31.4,10.311c24.995,5.623,43.009,14.06,54.052,25.307
			c11.038,11.248,16.559,25.414,16.559,42.491c0,20.831-7.24,36.818-21.715,47.959
			C1286.23,877.781,1267.122,883.352,1243.377,883.352z"/>
		<path style="fill:#FFFFFF;" d="M1405.532,881.165c-16.247,0.625-29.632-2.915-40.148-10.623
			c-10.52-7.703-15.778-18.849-15.778-33.43c0-10.623,3.226-19.684,9.685-27.182c6.454-7.498,14.787-13.381,24.995-17.653
			c10.203-4.266,20.723-6.507,31.556-6.717c5.414-0.415,10.516,0,15.309,1.25c4.789,1.25,9.061,3.022,12.81,5.311v-13.123
			c0-9.788-2.085-16.139-6.249-19.058c-4.169-2.915-10.31-4.375-18.434-4.375c-5.833,0-11.926,0.732-18.277,2.187
			c-6.356,1.46-12.551,3.437-18.59,5.936c-5.419,2.295-10.052,3.125-13.903,2.5c-3.857-0.625-7.03-3.125-9.53-7.498
			c-2.5-4.375-3.076-8.592-1.718-12.654c1.352-4.063,4.842-7.235,10.466-9.53c7.499-3.54,15.671-6.351,24.526-8.435
			c8.851-2.08,17.858-3.125,27.026-3.125c19.371,0,33.949,3.906,43.741,11.717c9.788,7.81,14.684,21.924,14.684,42.334v69.048
			c0,2.085,0.259,3.75,0.781,4.999c0.517,1.25,0.986,2.187,1.406,2.812c1.875,2.71,3.906,4.272,6.092,4.686
			c2.187,0.42,4.11,0.679,5.78,0.781c1.665,0.107,2.499,1.094,2.499,2.969c0,3.749-0.991,6.98-2.968,9.685
			c-1.982,2.71-5.263,4.585-9.841,5.624c-4.794,1.04-9.481,1.562-14.06,1.562c-6.458,0-11.404-1.094-14.84-3.281
			c-3.437-2.187-5.888-5.882-7.342-11.092c-5.209,4.375-11.248,7.762-18.122,10.155
			C1420.216,879.339,1413.03,880.745,1405.532,881.165z M1404.907,850.546c11.663-0.415,21.295-2.705,28.9-6.873
			c7.601-4.164,11.194-10.101,10.779-17.809c-0.21-5-2.763-8.436-7.655-10.311c-4.897-1.875-10.989-2.602-18.277-2.187
			c-10.208,0.21-18.644,2.763-25.308,7.654c-6.668,4.897-9.896,10.365-9.686,16.403
			C1384.076,846.797,1391.16,851.171,1404.907,850.546z"/>
		<path style="fill:#FFFFFF;" d="M1575.185,882.415c-14.792,0-26.089-2.71-33.899-8.123c-7.811-5.414-11.717-16.247-11.717-32.493
			v-82.796h-10.31c-12.292,0-18.433-5.101-18.433-15.309c0-4.789,1.299-8.485,3.906-11.092c2.602-2.602,7.342-3.905,14.215-3.905
			h10.623v-34.368c0-12.288,5.936-18.434,17.809-18.434c11.453,0,17.184,6.146,17.184,18.434v34.368h23.12
			c12.288,0,18.434,4.998,18.434,14.996c0,10.208-6.044,15.309-18.122,15.309h-23.432v73.735c0,7.083,1.718,11.873,5.155,14.372
			c3.437,2.5,8.382,3.749,14.841,3.749c6.664,0,11.922,0.782,15.778,2.344c3.852,1.562,5.78,5.575,5.78,12.029
			c0,5.208-1.514,9.012-4.531,11.404c-3.022,2.393-6.873,3.954-11.56,4.686C1585.339,882.049,1580.388,882.415,1575.185,882.415z"/>
		<path style="fill:#FFFFFF;" d="M1698.597,882.415c-13.747,0-26.088-3.281-37.023-9.842s-19.581-15.724-25.932-27.494
			c-6.357-11.766-9.53-25.566-9.53-41.399c0-15.826,3.173-29.628,9.53-41.397c6.351-11.766,14.997-20.933,25.932-27.494
			s23.276-9.842,37.023-9.842c14.162,0,26.714,3.281,37.648,9.842c10.935,6.561,19.527,15.728,25.776,27.494
			c6.249,11.77,9.373,25.571,9.373,41.397c0,15.832-3.124,29.633-9.373,41.399c-6.249,11.77-14.841,20.933-25.776,27.494
			C1725.31,879.134,1712.759,882.415,1698.597,882.415z M1698.597,850.546c11.038,0,20.045-4.062,27.026-12.185
			c6.976-8.124,10.467-19.684,10.467-34.681c0-14.996-3.491-26.557-10.467-34.68c-6.981-8.123-15.988-12.185-27.026-12.185
			c-10.833,0-19.683,4.062-26.557,12.185s-10.31,19.684-10.31,34.68c0,14.997,3.437,26.557,10.31,34.681
			C1678.913,846.485,1687.764,850.546,1698.597,850.546z"/>
		<path style="fill:#FFFFFF;" d="M1819.51,878.978c-11.873,0-17.809-6.141-17.809-18.434V747.129
			c0-12.288,6.142-18.433,18.434-18.433c4.164,0,7.811,0.991,10.935,2.968c3.124,1.982,4.686,5.677,4.686,11.092v7.185
			c3.749-7.498,9.632-13.536,17.653-18.121c8.016-4.579,16.506-6.873,25.464-6.873c6.454,0,11.404,1.718,14.84,5.155
			c3.437,3.437,5.156,8.074,5.156,13.903c0,5.419-1.357,9.373-4.062,11.872c-2.71,2.5-5.834,3.545-9.373,3.125
			c-1.67-0.205-3.437-0.361-5.311-0.469c-1.875-0.102-3.959-0.156-6.249-0.156c-10.208,0-18.902,3.335-26.089,9.998
			c-7.186,6.668-10.779,16.041-10.779,28.12v64.049C1837.007,872.837,1831.173,878.978,1819.51,878.978z"/>
		<path style="fill:#FFFFFF;" d="M1943.234,704.013c-6.043,0-11.248-2.187-15.622-6.561c-4.374-4.373-6.561-9.578-6.561-15.621
			c0-6.039,2.187-11.248,6.561-15.622c4.374-4.373,9.578-6.56,15.622-6.56c6.039,0,11.248,2.187,15.622,6.56
			c4.374,4.375,6.561,9.583,6.561,15.622c0,6.044-2.187,11.248-6.561,15.621C1954.482,701.826,1949.273,704.013,1943.234,704.013z
			 M1943.547,878.978c-11.667,0-17.497-6.141-17.497-18.434V747.129c0-12.288,5.829-18.433,17.497-18.433
			c11.663,0,17.497,6.145,17.497,18.433v113.415C1961.044,872.837,1955.21,878.978,1943.547,878.978z"/>
	</g>
</g>
<rect y="-1646.609" style="fill:#FFFFFF;" width="2560" height="1538"/>
<g>
	<path d="M1055.365-929.869c-7.055-30.697-19.912-59.096-38.213-84.406c-17.676-24.446-39.661-44.997-65.344-61.08
		c-25.682-16.084-53.769-26.891-83.479-32.12c-30.76-5.415-61.922-4.583-92.62,2.472c-30.698,7.055-59.096,19.912-84.406,38.213
		c-24.446,17.676-44.997,39.661-61.08,65.344c-9.827,15.692-17.681,32.284-23.5,49.593c-4.35,12.349-7.46,25.133-9.344,38.089
		c-0.118,0.797-0.229,1.595-0.338,2.394c-4.2,28.613-3.019,57.519,3.532,86.024c7.055,30.698,19.912,59.096,38.213,84.406
		c17.676,24.446,39.661,44.997,65.343,61.08c25.682,16.084,53.769,26.891,83.479,32.121c30.761,5.415,61.923,4.584,92.62-2.471
		c14.173-3.257,27.93-7.808,41.119-13.556c3.791-1.475,7.211-2.971,10.174-4.452c0.922-0.509,1.869-0.976,2.827-1.431
		c0.898-0.511,1.806-0.978,2.731-1.44c1.581-0.902,3.188-1.764,4.789-2.647c3.802-2.116,7.485-4.446,11.146-6.803
		c0.504-0.329,1.004-0.663,1.504-0.998c12.107-7.808,23.502-16.745,34.017-26.731c14.212-15.154-6.452-28.321-24.19-14.865
		c-0.904-9.894-1.84-19.919-2.829-21.641c-5.257-9.147-15.371-14.364-25.863-13.257c-1.907,0.201-7.394,1.111-11.61,1.519
		c-0.543,0.052-1.083,0.048-1.619,0.017c-13.284,27.125-43.766,18.973-43.766,18.973c32.959-6.543,35.582-23.23,35.582-23.23
		c0.069-19.045-0.839-61.73-2.985-76.961c-1.408-9.989-7.646-19.504-17.15-23.412c-10.935-4.879-23.57-3.617-34.372-8.848
		c-3.899-1.763-6.353-5.234-8.208-8.953c-0.828-1.66-1.588-3.468-2.084-5.257c-0.967-3.495,0.053-7.004,0.985-10.402
		c1.611,2.781,2.026,9.371,3.665,12.139c0.303,0.511,0.853,0.823,1.447,0.822l0.029,0c0.911-0.002,1.66-0.748,1.674-1.66
		c0.091-6.192-0.538-12.465,1.413-18.451c2.294-7.112,5.571-13.824,8.423-20.706c0.68-1.417,0.959-3.787,1.096-6.014
		c0.123-1.991-1.962-3.36-3.733-2.443c-0.781,0.404-1.562,0.721-2.339,0.689c-0.194-4.976,0.473-10.062-0.388-14.977
		c-3.437-10.475-13.567-16.113-19.698-24.722c-1.208-1.696-1.828-3.744-1.753-5.825c0.102-2.807,0.118-5.632-0.991-8.256
		c-0.15-0.477-0.346-0.926-0.578-1.351c-2.166-3.963-6.453-6.097-10.723-5.91c-4.27-0.187-8.557,1.947-10.723,5.91
		c-0.232,0.425-0.428,0.874-0.578,1.351c-1.109,2.624-1.093,5.449-0.991,8.256c0.075,2.08-0.545,4.129-1.753,5.825
		c-6.131,8.609-16.261,14.247-19.698,24.722c-0.862,4.916-0.194,10.001-0.389,14.977c-0.777,0.032-1.558-0.285-2.339-0.689
		c-1.771-0.917-3.856,0.452-3.733,2.443c0.138,2.227,0.417,4.597,1.096,6.014c2.852,6.882,6.129,13.594,8.423,20.706
		c1.951,5.986,1.322,12.258,1.413,18.451c0.013,0.911,0.762,1.658,1.673,1.66l0.029,0c0.594,0.001,1.144-0.31,1.447-0.822
		c1.639-2.768,2.054-9.357,3.665-12.139c0.932,3.398,1.952,6.908,0.985,10.402c-0.495,1.79-1.255,3.597-2.084,5.257
		c-1.856,3.719-4.31,7.19-8.208,8.953c-10.802,5.231-23.437,3.969-34.372,8.848c-9.503,3.908-15.742,13.424-17.15,23.412
		c-2.147,15.231-3.055,57.917-2.986,76.961c0,0,2.623,16.687,35.582,23.23c0,0-30.482,8.153-43.766-18.973
		c-0.537,0.031-1.077,0.035-1.619-0.017c-4.216-0.408-9.703-1.318-11.61-1.519c-9.723-1.026-19.118,3.382-24.628,11.313
		c-13.758-14.025-25.422-30.141-34.483-47.544c-1.429-2.851-2.751-5.75-4.248-8.561c-1.094-2.584-2.096-5.213-3.395-7.703
		c-2.654-6.928-5.144-13.917-7.35-21.003c-1.598-6.921-3.213-13.845-4.767-20.776c-1.476-9.652-2.442-19.397-2.66-29.181
		c0.057-1.247,0.042-2.502,0.029-3.748c0.061-2.115,0.108-4.22,0.084-6.331c0.96-19.749,4.78-39.429,12.037-57.852
		c8.15-21.23,20.587-40.703,36.01-57.378c5.777-6.233,11.994-12.052,18.503-17.516c10.824-8.916,22.509-16.773,34.882-23.366
		c0.922-0.509,1.872-0.962,2.812-1.427c1.874-1.024,3.763-2.013,5.74-2.827c21.711-9.863,40.939-14.11,66.656-16.108
		c1.489-0.116,2.999-0.307,4.508-0.169c1.088-0.094,2.193-0.246,3.295-0.109c2.28-0.071,4.56-0.111,6.835,0.069
		c1.877-0.025,3.751,0.075,5.628,0.222c0.83,0.044,1.66,0.087,2.492,0.138c6.907,0.381,13.766,1.336,20.582,2.511
		c4.366,0.746,8.677,1.794,12.994,2.771c1.084,0.298,2.168,0.595,3.261,0.868c17.025,4.742,33.295,12.08,48.463,21.076
		c5.137,2.569,9.605,6.205,14.44,9.266c11.389,8.123,21.828,17.551,31.1,28.02c3.424,3.681,6.487,7.687,9.801,11.461
		c1.978,2.252,5.561-0.114,4.266-2.817l-0.039-0.081c-7.366-12.336-18.171-22.101-28.609-31.795
		c-0.524-0.503-1.061-0.992-1.606-1.473c-1.664-1.47,0.145-4.111,2.123-3.102c0.622,0.318,1.243,0.633,1.864,0.934
		c9.719,6.023,17.69,14.432,24.771,23.319c10.612,13.715,19.446,28.768,26.688,44.508c3.753,7.902,6.594,16.185,9.726,24.339
		c1.583,7.159,3.726,14.243,4.349,21.576c1.193,5.803,1.322,11.734,2.204,17.577c1.273,21.923,1.75,44.287-3.44,65.789
		c-0.759,3.409-2.668,6.96-2.757,10.475c-0.061,2.387,2.814,3.678,4.612,2.107c3.351-2.926,5.009-7.694,6.403-11.832
		c2.791-9.406,3.975-19.208,4.581-28.979c0.162-2.896,0.31-5.789,0.347-8.688c0.048-1.05,0.049-2.097,0.069-3.133
		c0.037-1.063,0.037-2.118,0.061-3.17c0.055-1.255-0.037-2.507-0.12-3.753c0.316-9.774-0.967-19.502-1.47-29.236
		c-1.183-6.813-1.41-13.783-3.091-20.521c-0.483-7.201-2.956-13.983-4.871-20.854c0.483-0.549,0.967-1.097,1.459-1.64
		c1.366,1.014,2.353,2.388,3.21,3.84c1.065,2.357,1.99,4.784,3.224,7.063c0.608,2.477,1.544,4.848,2.501,7.213
		c1.255,4.914,2.288,9.887,3.462,14.827c1.199,4.232,1.085,8.664,2.043,12.935c0.13,4.61,1.335,9.208,0.918,13.818l0.16,0.049
		c0.125,0.713,0.375,2.14,0.5,2.854l-0.814-0.211c0.627,0.996,0.589,2.224,0.695,3.363c0.173,4.936,0.052,9.877,0.186,14.815
		c-1.064,28.647-5.258,57.708-17.162,84.019c-4.048,8.148-8.595,16.544-8.811,25.866c0.145,2.608,1.081,4.534,2.275,5.945
		c2.363,2.793,6.784,2.451,8.682-0.677c14.951-24.636,25.102-51.442,30.193-79.756
		C1063.267-867.439,1062.486-898.884,1055.365-929.869z"/>
	<g>
		<path d="M1243.377-763.257c-15.417,0-29.789-2.656-43.116-7.967c-13.332-5.311-24.79-14.215-34.368-26.713
			c-3.544-4.998-4.74-9.632-3.593-13.904c1.142-4.266,4.218-7.757,9.216-10.467c4.789-2.914,9.163-3.797,13.123-2.656
			c3.954,1.148,7.914,3.906,11.873,8.28c5.624,6.044,12.341,10.73,20.152,14.059c7.811,3.335,17.13,5,27.964,5
			c14.577,0,24.838-2.656,30.775-7.967c5.936-5.311,8.905-12.547,8.905-21.715c0-5.829-1.303-10.828-3.906-14.997
			c-2.607-4.163-8.021-8.069-16.247-11.716c-8.231-3.642-20.884-7.342-37.961-11.092c-20.206-4.789-35.149-12.391-44.835-22.807
			c-9.685-10.413-14.528-23.638-14.528-39.68c0-12.702,3.071-23.901,9.217-33.587c6.141-9.685,14.787-17.233,25.932-22.651
			c11.141-5.413,24.214-8.123,39.211-8.123c15.622,0,29.262,2.71,40.929,8.123c11.663,5.419,21.451,12.395,29.369,20.934
			c3.954,4.374,5.516,8.748,4.687,13.123c-0.835,4.373-3.544,8.333-8.123,11.872c-4.584,3.75-8.958,5.21-13.123,4.375
			c-4.169-0.83-8.333-3.227-12.498-7.186c-5.208-4.789-11.145-8.748-17.809-11.873c-6.668-3.124-14.582-4.687-23.745-4.687
			c-10.832,0-19.635,2.344-26.401,7.03c-6.771,4.687-10.154,11.716-10.154,21.09c0,4.169,0.986,8.176,2.968,12.029
			c1.977,3.857,6.351,7.552,13.123,11.091c6.766,3.545,17.232,6.981,31.4,10.311c24.995,5.623,43.009,14.059,54.052,25.307
			c11.038,11.248,16.559,25.414,16.559,42.491c0,20.831-7.24,36.818-21.715,47.959
			C1286.23-768.828,1267.122-763.257,1243.377-763.257z"/>
		<path d="M1405.532-765.444c-16.247,0.625-29.632-2.915-40.148-10.623c-10.52-7.703-15.778-18.849-15.778-33.43
			c0-10.623,3.226-19.684,9.685-27.182c6.454-7.498,14.787-13.381,24.995-17.653c10.203-4.266,20.723-6.507,31.556-6.717
			c5.414-0.415,10.516,0,15.309,1.25c4.789,1.25,9.061,3.022,12.81,5.311v-13.123c0-9.788-2.085-16.139-6.249-19.058
			c-4.169-2.915-10.31-4.375-18.434-4.375c-5.833,0-11.926,0.732-18.277,2.187c-6.356,1.46-12.551,3.437-18.59,5.936
			c-5.419,2.295-10.052,3.125-13.903,2.5c-3.857-0.625-7.03-3.125-9.53-7.498c-2.5-4.375-3.076-8.592-1.718-12.654
			c1.352-4.063,4.842-7.235,10.466-9.53c7.499-3.539,15.671-6.351,24.526-8.435c8.851-2.08,17.858-3.125,27.026-3.125
			c19.371,0,33.949,3.906,43.741,11.717c9.788,7.81,14.684,21.924,14.684,42.334v69.048c0,2.085,0.259,3.75,0.781,4.999
			c0.517,1.25,0.986,2.187,1.406,2.812c1.875,2.71,3.906,4.272,6.092,4.686c2.187,0.42,4.11,0.679,5.78,0.781
			c1.665,0.107,2.499,1.094,2.499,2.969c0,3.749-0.991,6.98-2.968,9.685c-1.982,2.71-5.263,4.585-9.841,5.624
			c-4.794,1.04-9.481,1.562-14.06,1.562c-6.458,0-11.404-1.094-14.84-3.281c-3.437-2.187-5.888-5.882-7.342-11.092
			c-5.209,4.375-11.248,7.762-18.122,10.155C1420.216-767.27,1413.03-765.864,1405.532-765.444z M1404.907-796.063
			c11.663-0.415,21.295-2.705,28.9-6.873c7.601-4.164,11.194-10.101,10.779-17.809c-0.21-5-2.763-8.436-7.655-10.311
			c-4.897-1.875-10.989-2.602-18.277-2.187c-10.208,0.21-18.644,2.763-25.308,7.654c-6.668,4.897-9.896,10.365-9.686,16.403
			C1384.076-799.812,1391.16-795.438,1404.907-796.063z"/>
		<path d="M1575.185-764.194c-14.792,0-26.089-2.71-33.899-8.123c-7.811-5.414-11.717-16.247-11.717-32.493v-82.796h-10.31
			c-12.292,0-18.433-5.101-18.433-15.309c0-4.789,1.299-8.485,3.906-11.092c2.602-2.602,7.342-3.904,14.215-3.904h10.623v-34.368
			c0-12.288,5.936-18.434,17.809-18.434c11.453,0,17.184,6.146,17.184,18.434v34.368h23.12c12.288,0,18.434,4.998,18.434,14.996
			c0,10.208-6.044,15.309-18.122,15.309h-23.432v73.735c0,7.083,1.718,11.873,5.155,14.372c3.437,2.5,8.382,3.749,14.841,3.749
			c6.664,0,11.922,0.782,15.778,2.344c3.852,1.562,5.78,5.575,5.78,12.029c0,5.208-1.514,9.012-4.531,11.404
			c-3.022,2.393-6.873,3.954-11.56,4.686C1585.339-764.56,1580.388-764.194,1575.185-764.194z"/>
		<path d="M1698.597-764.194c-13.747,0-26.088-3.281-37.023-9.842s-19.581-15.724-25.932-27.494
			c-6.357-11.766-9.53-25.566-9.53-41.398c0-15.826,3.173-29.628,9.53-41.397c6.351-11.766,14.997-20.933,25.932-27.494
			s23.276-9.842,37.023-9.842c14.162,0,26.714,3.281,37.648,9.842c10.935,6.561,19.527,15.728,25.776,27.494
			c6.249,11.77,9.373,25.571,9.373,41.397c0,15.832-3.124,29.633-9.373,41.398c-6.249,11.77-14.841,20.933-25.776,27.494
			C1725.31-767.475,1712.759-764.194,1698.597-764.194z M1698.597-796.063c11.038,0,20.045-4.062,27.026-12.185
			c6.976-8.124,10.467-19.684,10.467-34.681c0-14.996-3.491-26.557-10.467-34.68c-6.981-8.123-15.988-12.185-27.026-12.185
			c-10.833,0-19.683,4.062-26.557,12.185s-10.31,19.684-10.31,34.68c0,14.997,3.437,26.557,10.31,34.681
			C1678.913-800.124,1687.764-796.063,1698.597-796.063z"/>
		<path d="M1819.51-767.631c-11.873,0-17.809-6.141-17.809-18.434v-113.415c0-12.288,6.142-18.433,18.434-18.433
			c4.164,0,7.811,0.991,10.935,2.968c3.124,1.982,4.686,5.677,4.686,11.092v7.185c3.749-7.498,9.632-13.536,17.653-18.121
			c8.016-4.579,16.506-6.873,25.464-6.873c6.454,0,11.404,1.718,14.84,5.155c3.437,3.437,5.156,8.074,5.156,13.904
			c0,5.419-1.357,9.373-4.062,11.872c-2.71,2.5-5.834,3.545-9.373,3.125c-1.67-0.205-3.437-0.361-5.311-0.469
			c-1.875-0.102-3.959-0.156-6.249-0.156c-10.208,0-18.902,3.335-26.089,9.998c-7.186,6.668-10.779,16.041-10.779,28.12v64.049
			C1837.007-773.772,1831.173-767.631,1819.51-767.631z"/>
		<path d="M1943.234-942.596c-6.043,0-11.248-2.187-15.622-6.561c-4.374-4.373-6.561-9.578-6.561-15.621
			c0-6.039,2.187-11.248,6.561-15.622c4.374-4.373,9.578-6.56,15.622-6.56c6.039,0,11.248,2.187,15.622,6.56
			c4.374,4.375,6.561,9.583,6.561,15.622c0,6.044-2.187,11.248-6.561,15.621C1954.482-944.782,1949.273-942.596,1943.234-942.596z
			 M1943.547-767.631c-11.667,0-17.497-6.141-17.497-18.434v-113.415c0-12.288,5.829-18.433,17.497-18.433
			c11.663,0,17.497,6.145,17.497,18.433v113.415C1961.044-773.772,1955.21-767.631,1943.547-767.631z"/>
	</g>
</g>
</svg>
