<?xml version="1.0" encoding="UTF-8" standalone="no"?>
<!-- Created with Inkscape (http://www.inkscape.org/) -->

<svg
   width="128mm"
   height="128mm"
   viewBox="0 0 128 128"
   version="1.1"
   id="svg239"
   inkscape:version="1.2.1 (9c6d41e410, 2022-07-14)"
   sodipodi:docname="enso-light.svg"
   xmlns:inkscape="http://www.inkscape.org/namespaces/inkscape"
   xmlns:sodipodi="http://sodipodi.sourceforge.net/DTD/sodipodi-0.dtd"
   xmlns="http://www.w3.org/2000/svg"
   xmlns:svg="http://www.w3.org/2000/svg">
  <sodipodi:namedview
     id="namedview241"
     pagecolor="#505050"
     bordercolor="#ffffff"
     borderopacity="1"
     inkscape:showpageshadow="0"
     inkscape:pageopacity="0"
     inkscape:pagecheckerboard="1"
     inkscape:deskcolor="#505050"
     inkscape:document-units="mm"
     showgrid="false"
     inkscape:zoom="0.2102413"
     inkscape:cx="394.78447"
     inkscape:cy="563.63806"
     inkscape:window-width="3440"
     inkscape:window-height="1370"
     inkscape:window-x="7073"
     inkscape:window-y="-6"
     inkscape:window-maximized="1"
     inkscape:current-layer="layer1" />
  <defs
     id="defs236" />
  <g
     inkscape:label="Layer 1"
     inkscape:groupmode="layer"
     id="layer1">
    <path
       d="M 126.35601,49.668784 C 124.42138,41.251091 120.89574,33.463552 115.87724,26.523075 111.03012,19.819524 105.0014,14.184054 97.958601,9.7737925 90.91608,5.3632603 83.214061,2.3997803 75.066982,0.96588641 66.631972,-0.5190095 58.086726,-0.29086294 49.668717,1.6437553 41.250709,3.578363 33.463406,7.1039959 26.522895,12.122477 c -6.703584,4.847365 -12.339081,10.87579 -16.7493632,17.91855 -2.6947607,4.303041 -4.8484848,8.85288 -6.444168,13.599331 -1.19286,3.386328 -2.0456906,6.891941 -2.56231605,10.444719 -0.0323364,0.218553 -0.0628072,0.437379 -0.0926562,0.656479 -1.15172438,7.846222 -0.8278735,15.77279 0.96854715,23.589396 1.9346213,8.417967 5.4602692,16.205231 10.4787713,23.145708 4.847114,6.70355 10.875843,12.33902 17.918364,16.74927 7.04252,4.41054 14.74454,7.37402 22.891619,8.80818 8.435285,1.4849 16.98053,1.25675 25.398265,-0.67787 3.886521,-0.89312 7.658967,-2.14109 11.275656,-3.7173 1.039568,-0.40448 1.977401,-0.8147 2.789916,-1.22082 0.25283,-0.13957 0.512517,-0.26764 0.77522,-0.39241 0.246249,-0.14012 0.495241,-0.26818 0.748895,-0.39487 0.433542,-0.24734 0.874213,-0.48373 1.313239,-0.72586 1.042585,-0.58025 2.052538,-1.21918 3.056458,-1.86551 0.138207,-0.0902 0.275317,-0.18181 0.412426,-0.27367 3.319982,-2.1411 6.444712,-4.5918 9.328152,-7.33014 3.8972,-4.15551 -1.76928,-7.76615 -6.63339,-4.07627 -0.2479,-2.71311 -0.50457,-5.46215 -0.77577,-5.93436 -1.441574,-2.508277 -4.215036,-3.938877 -7.092153,-3.635317 -0.522938,0.05512 -2.027583,0.304657 -3.183696,0.416538 -0.148901,0.01426 -0.296706,0.01316 -0.443962,0.0047 -3.64274,7.438179 -12.001517,5.202759 -12.001517,5.202759 9.038021,-1.79422 9.7573,-6.370108 9.7573,-6.370108 0.01892,-5.222496 -0.23007,-16.927524 -0.818822,-21.10415 -0.386101,-2.739171 -2.096686,-5.348363 -4.702874,-6.42001 -2.998597,-1.337913 -6.463368,-0.991849 -9.425493,-2.426287 -1.069185,-0.483722 -1.74212,-1.435261 -2.250798,-2.455081 -0.227055,-0.455203 -0.435462,-0.950991 -0.571475,-1.441568 -0.265171,-0.958394 0.01453,-1.920628 0.270107,-2.852423 0.441769,0.762602 0.55557,2.569703 1.005016,3.328741 0.08309,0.140126 0.23391,0.225682 0.396797,0.225408 h 0.008 c 0.249814,0 0.455205,-0.205116 0.459044,-0.455203 0.02496,-1.697963 -0.14753,-3.418137 0.387473,-5.059611 0.629062,-1.950243 1.52768,-3.7908 2.309756,-5.677973 0.186469,-0.388568 0.262977,-1.038466 0.300545,-1.649151 0.03373,-0.545971 -0.538019,-0.921376 -1.023663,-0.669917 -0.214166,0.110784 -0.428332,0.197711 -0.641401,0.188936 -0.0532,-1.364512 0.129706,-2.759189 -0.106672,-4.106974 -0.942494,-2.872441 -3.720344,-4.418487 -5.401587,-6.779236 -0.331258,-0.465075 -0.501275,-1.026675 -0.480708,-1.597324 0.02769,-0.769732 0.03236,-1.5444 -0.271752,-2.263951 -0.04114,-0.131076 -0.09488,-0.253926 -0.158499,-0.370469 -0.59396,-1.087003 -1.769542,-1.671912 -2.940462,-1.620633 -1.17092,-0.05128 -2.346502,0.533904 -2.940462,1.620633 -0.06362,0.116543 -0.117367,0.239667 -0.158499,0.370469 -0.30411,0.719551 -0.299723,1.494219 -0.271752,2.263951 0.02056,0.570374 -0.14945,1.132249 -0.480434,1.597324 -1.681244,2.360475 -4.459093,3.906795 -5.401588,6.779236 -0.236378,1.34806 -0.0532,2.742462 -0.106672,4.106974 -0.213343,0.0088 -0.427235,-0.07816 -0.6414,-0.188936 -0.485644,-0.251459 -1.057392,0.123946 -1.023664,0.669917 0.03784,0.610685 0.114351,1.260583 0.300546,1.649151 0.782075,1.887173 1.680695,3.72773 2.309755,5.677973 0.535004,1.641474 0.362519,3.361374 0.387473,5.059611 0.0035,0.249813 0.208956,0.454654 0.459045,0.455203 h 0.008 c 0.162886,2.74e-4 0.313707,-0.08501 0.396796,-0.225408 0.449447,-0.759038 0.563248,-2.565865 1.005017,-3.328741 0.255572,0.931795 0.535277,1.894303 0.270106,2.852423 -0.135738,0.490852 -0.344146,0.986365 -0.571474,1.441568 -0.508953,1.01982 -1.18189,1.971634 -2.250799,2.455081 -2.962125,1.434438 -6.426897,1.088374 -9.425494,2.426287 -2.606187,1.071647 -4.316771,3.681113 -4.702874,6.42001 -0.58875,4.176626 -0.837742,15.881928 -0.818821,21.10415 0,0 0.71928,4.575888 9.7573,6.370108 0,0 -8.358778,2.23569 -12.001517,-5.202759 -0.147257,0.0085 -0.295336,0.0096 -0.443963,-0.0047 -1.156111,-0.111881 -2.660757,-0.36142 -3.183694,-0.416538 -2.666243,-0.281348 -5.24254,0.927408 -6.753494,3.102237 -3.772719,-3.845918 -6.971223,-8.265228 -9.455931,-13.037457 -0.39186,-0.781798 -0.754379,-1.576758 -1.164887,-2.347586 -0.299997,-0.708582 -0.574765,-1.429502 -0.930977,-2.112308 -0.72778,-1.899787 -1.410589,-3.816302 -2.015517,-5.759417 -0.438205,-1.897868 -0.88107,-3.796558 -1.307208,-5.697168 -0.404749,-2.64676 -0.669646,-5.319022 -0.729426,-8.001978 0.01563,-0.34195 0.01151,-0.686095 0.008,-1.027772 0.01673,-0.579973 0.02962,-1.157203 0.02304,-1.736078 0.263251,-5.415548 1.310771,-10.812172 3.300787,-15.864379 2.234894,-5.821664 5.645369,-11.161526 9.874665,-15.734124 1.58417,-1.709206 3.288997,-3.304884 5.073895,-4.803216 2.968159,-2.445208 6.17242,-4.599471 9.565345,-6.407396 0.252831,-0.139577 0.51334,-0.263523 0.771107,-0.391309 0.513889,-0.2808 1.031891,-0.552003 1.574024,-0.775217 5.953592,-2.70462 11.226296,-3.869501 18.278414,-4.417116 0.408314,-0.03181 0.822386,-0.08419 1.236184,-0.04634 0.298352,-0.02578 0.601365,-0.06746 0.903555,-0.02989 0.625222,-0.01947 1.250444,-0.03044 1.874295,0.01919 0.514711,-0.0068 1.028599,0.02056 1.54331,0.06088 0.227603,0.01179 0.455206,0.02386 0.683357,0.03784 1.894038,0.104477 3.774914,0.366356 5.643998,0.688564 1.197245,0.204567 2.379408,0.491948 3.563216,0.75986 0.297254,0.08172 0.594509,0.16316 0.894232,0.237748 4.668597,1.300345 9.130158,3.312563 13.289528,5.779434 1.408669,0.704468 2.633884,1.701528 3.959738,2.540637 3.123093,2.227479 5.985675,4.812814 8.528245,7.68361 0.93893,1.009399 1.77887,2.108193 2.68763,3.142821 0.54241,0.617541 1.52494,-0.03126 1.16983,-0.772474 l -0.0107,-0.02221 c -2.0199,-3.382762 -4.98285,-6.060508 -7.845163,-8.718785 -0.143691,-0.137933 -0.290947,-0.272026 -0.440397,-0.403924 -0.456302,-0.403102 0.03976,-1.127313 0.58217,-0.850627 0.170565,0.0872 0.340855,0.17358 0.511146,0.25612 2.665144,1.651619 4.850954,3.957526 6.792704,6.394508 2.91003,3.76091 5.33249,7.888999 7.31839,12.204928 1.02914,2.166877 1.8082,4.438231 2.66706,6.67421 0.43409,1.963132 1.02175,3.905699 1.19258,5.916544 0.32715,1.591292 0.36252,3.217684 0.60438,4.819943 0.34909,6.011699 0.47989,12.144327 -0.94331,18.040854 -0.20813,0.934811 -0.73162,1.908562 -0.75603,2.872441 -0.0167,0.654559 0.77166,1.008576 1.26471,0.577778 0.91891,-0.802364 1.37357,-2.109839 1.75582,-3.244556 0.76536,-2.579302 1.09003,-5.267194 1.25621,-7.946585 0.0445,-0.794138 0.085,-1.587453 0.0951,-2.382413 0.0132,-0.28793 0.0135,-0.575036 0.019,-0.859128 0.0104,-0.291494 0.0104,-0.580794 0.0167,-0.869273 0.015,-0.344144 -0.0104,-0.687466 -0.0332,-1.029143 0.0867,-2.680214 -0.26517,-5.347814 -0.40311,-8.017059 -0.3244,-1.868253 -0.38664,-3.779557 -0.8476,-5.627244 -0.13246,-1.97465 -0.8106,-3.834401 -1.33573,-5.718558 0.13245,-0.150546 0.26517,-0.300818 0.40009,-0.449718 0.37458,0.278057 0.64523,0.655108 0.88024,1.053 0.29204,0.646059 0.5457,1.311862 0.88409,1.936532 0.16672,0.67924 0.42339,1.329413 0.68582,1.977941 0.34388,1.34751 0.62742,2.7112 0.94935,4.065841 0.32879,1.160493 0.29753,2.375832 0.56023,3.547019 0.0357,1.264149 0.36609,2.525007 0.25174,3.789155 l 0.0438,0.01344 c 0.0343,0.195518 0.10281,0.586828 0.13711,0.782621 l -0.22322,-0.05786 c 0.17193,0.273121 0.16152,0.609862 0.19059,0.922198 0.0475,1.353543 0.0143,2.708458 0.051,4.062276 -0.29177,7.855545 -1.44185,15.824616 -4.70616,23.039586 -1.11005,2.234335 -2.35693,4.536675 -2.41616,7.092669 0.0398,0.715162 0.29643,1.243307 0.62385,1.63023 0.64798,0.765893 1.86031,0.67211 2.38078,-0.185646 4.09987,-6.755653 6.88347,-14.106362 8.27953,-21.870591 1.53042,-8.509557 1.31626,-17.132366 -0.63647,-25.629035 z"
       id="path76"
       style="stroke-width:0.274219" />
  </g>
</svg>
