<?xml version="1.0" encoding="UTF-8" standalone="no"?>
<!-- Created with Inkscape (http://www.inkscape.org/) -->

<svg
   width="128mm"
   height="128mm"
   viewBox="0 0 128 128"
   version="1.1"
   id="svg239"
   inkscape:version="1.2.1 (9c6d41e410, 2022-07-14)"
   sodipodi:docname="enso-dark.svg"
   xmlns:inkscape="http://www.inkscape.org/namespaces/inkscape"
   xmlns:sodipodi="http://sodipodi.sourceforge.net/DTD/sodipodi-0.dtd"
   xmlns="http://www.w3.org/2000/svg"
   xmlns:svg="http://www.w3.org/2000/svg">
  <sodipodi:namedview
     id="namedview241"
     pagecolor="#505050"
     bordercolor="#ffffff"
     borderopacity="1"
     inkscape:showpageshadow="0"
     inkscape:pageopacity="0"
     inkscape:pagecheckerboard="1"
     inkscape:deskcolor="#505050"
     inkscape:document-units="mm"
     showgrid="false"
     inkscape:zoom="0.2102413"
     inkscape:cx="394.78447"
     inkscape:cy="563.63806"
     inkscape:window-width="3440"
     inkscape:window-height="1370"
     inkscape:window-x="7073"
     inkscape:window-y="-6"
     inkscape:window-maximized="1"
     inkscape:current-layer="layer1" />
  <defs
     id="defs236" />
  <g
     inkscape:label="Layer 1"
     inkscape:groupmode="layer"
     id="layer1">
    <path
       style="fill:#ffffff;stroke-width:0.274218"
       d="M 126.35503,49.668783 C 124.42042,41.251084 120.89481,33.463548 115.87634,26.523076 111.02926,19.819519 105.00058,14.184052 97.957838,9.7737958 90.915371,5.3632598 83.213413,2.39978 75.066398,0.96588633 66.631457,-0.51900946 58.086002,-0.29086292 49.668328,1.643755 41.250383,3.5783627 33.463149,7.1039952 26.522686,12.122473 19.819158,16.969838 14.183706,22.998263 9.7734518,30.041029 7.0787122,34.344068 4.925012,38.893898 3.3293276,43.640358 2.1364872,47.026685 1.2836633,50.532294 0.76704184,54.085071 c -0.0323361,0.218549 -0.0628067,0.437378 -0.0926554,0.656477 -1.1517155,7.846228 -0.82786709,15.772789 0.96853956,23.589396 1.9346022,8.417968 5.4602248,16.205235 10.478689,23.145706 4.847082,6.70355 10.875759,12.33903 17.918226,16.74928 7.042467,4.41054 14.744425,7.37402 22.89144,8.80818 8.434942,1.4849 16.980396,1.25675 25.398071,-0.67787 3.886492,-0.89313 7.658905,-2.1411 11.275567,-3.7173 1.039834,-0.40447 1.977385,-0.81471 2.789893,-1.22083 0.252833,-0.13957 0.512517,-0.26763 0.775217,-0.3924 0.246241,-0.14013 0.49524,-0.26819 0.748892,-0.39487 0.433532,-0.24735 0.874205,-0.48373 1.31323,-0.72587 1.042571,-0.58024 2.052515,-1.21917 3.056428,-1.86551 0.138206,-0.0902 0.275313,-0.18181 0.41242,-0.27366 3.319961,-2.14111 6.444671,-4.5918 9.328081,-7.33015 3.89718,-4.1555 -1.76926,-7.76615 -6.63334,-4.07626 -0.24789,-2.71312 -0.50428,-5.46216 -0.77576,-5.93437 -1.441567,-2.508276 -4.215001,-3.938874 -7.092098,-3.635318 -0.522933,0.05514 -2.027569,0.304655 -3.183668,0.416536 -0.148902,0.0143 -0.296985,0.01316 -0.443959,0.0052 -3.642716,7.438182 -12.00143,5.202752 -12.00143,5.202752 9.037949,-1.79421 9.75723,-6.3701 9.75723,-6.3701 0.01886,-5.222497 -0.230073,-16.927524 -0.818819,-21.104151 -0.386095,-2.739168 -2.096666,-5.348359 -4.702834,-6.420004 -2.998575,-1.337911 -6.463318,-0.991852 -9.425422,-2.426295 -1.069175,-0.483716 -1.742109,-1.435251 -2.250781,-2.455075 -0.227057,-0.455205 -0.43546,-0.950986 -0.571468,-1.441563 -0.265177,-0.958396 0.01451,-1.920637 0.2701,-2.852428 0.441771,0.762606 0.55557,2.569703 1.005011,3.328744 0.08312,0.140124 0.233908,0.22568 0.396791,0.2254 h 0.0083 c 0.249818,0 0.455204,-0.205107 0.459049,-0.455194 0.02498,-1.697963 -0.147534,-3.418136 0.387463,-5.059613 0.629062,-1.950247 1.527675,-3.7908 2.309743,-5.677971 0.186472,-0.388574 0.26297,-1.038469 0.30054,-1.649158 0.03379,-0.545963 -0.538013,-0.921375 -1.023657,-0.669909 -0.214164,0.110783 -0.428329,0.197707 -0.641395,0.188929 -0.05317,-1.364506 0.129707,-2.759181 -0.106668,-4.106969 -0.942484,-2.872441 -3.720313,-4.418486 -5.401543,-6.779237 -0.331259,-0.465072 -0.501272,-1.026675 -0.48071,-1.597326 0.02767,-0.769727 0.03234,-1.544397 -0.271747,-2.26395 -0.04115,-0.131076 -0.09483,-0.253923 -0.158499,-0.370468 -0.593959,-1.087005 -1.769533,-1.671907 -2.940443,-1.620635 -1.17091,-0.0513 -2.346483,0.53391 -2.940432,1.620635 -0.06363,0.116545 -0.117363,0.239672 -0.158498,0.370468 -0.304116,0.719553 -0.299721,1.494223 -0.271748,2.26395 0.02052,0.570381 -0.149451,1.132254 -0.48071,1.597326 -1.68123,2.360471 -4.459059,3.906796 -5.401543,6.779237 -0.236375,1.348057 -0.05317,2.742463 -0.106398,4.106969 -0.213346,0.0083 -0.427231,-0.07815 -0.641396,-0.188929 -0.485643,-0.251466 -1.057381,0.123946 -1.023656,0.669909 0.03783,0.610689 0.114348,1.260584 0.300539,1.649158 0.782079,1.887171 1.680681,3.727724 2.309743,5.677971 0.534997,1.641477 0.362517,3.36137 0.387474,5.059613 0.0031,0.249807 0.208952,0.454655 0.459038,0.455194 h 0.0083 c 0.162883,2.8e-4 0.313702,-0.08499 0.396791,-0.2254 0.449441,-0.759041 0.56325,-2.565868 1.005011,-3.328744 0.255569,0.931791 0.535277,1.894301 0.27011,2.852428 -0.135739,0.490847 -0.344151,0.986358 -0.571479,1.441563 -0.508941,1.019824 -1.181875,1.971628 -2.250781,2.455075 -2.962103,1.434443 -6.426847,1.088384 -9.425411,2.426295 -2.606168,1.071645 -4.316749,3.681105 -4.702845,6.420004 -0.588745,4.176627 -0.837733,15.881934 -0.818808,21.104151 0,0 0.719271,4.57589 9.757219,6.3701 0,0 -8.358713,2.23571 -12.001419,-5.202752 -0.147265,0.0083 -0.295337,0.0093 -0.443969,-0.0052 -1.1561,-0.111881 -2.660735,-0.361419 -3.183668,-0.416536 -2.666218,-0.281346 -5.242495,0.927407 -6.753442,3.102236 -3.772684,-3.845917 -6.971162,-8.265221 -9.455851,-13.037456 -0.391858,-0.781791 -0.754375,-1.576754 -1.164878,-2.347579 -0.300001,-0.708588 -0.574765,-1.429509 -0.93097,-2.112311 -0.72805,-1.899784 -1.410581,-3.816307 -2.015505,-5.759413 -0.438196,-1.897866 -0.881066,-3.796562 -1.307198,-5.697175 -0.404741,-2.646761 -0.669638,-5.319018 -0.729418,-8.001971 0.01565,-0.341956 0.0115,-0.686098 0.0083,-1.027774 0.01669,-0.579979 0.02964,-1.157201 0.02301,-1.736081 0.26325,-5.41554 1.310764,-10.812165 3.300763,-15.864378 2.234872,-5.821659 5.645318,-11.16152 9.874583,-15.73412 1.584159,-1.709208 3.288968,-3.304886 5.07386,-4.803214 2.968135,-2.445209 6.172366,-4.599475 9.565265,-6.407401 0.252834,-0.139575 0.513336,-0.26352 0.771103,-0.39131 0.513885,-0.280796 1.031885,-0.551996 1.574013,-0.775209 5.953548,-2.704624 11.226213,-3.869505 18.278277,-4.417117 0.408306,-0.03182 0.822374,-0.08416 1.236173,-0.04633 0.298342,-0.02581 0.601358,-0.06747 0.903546,-0.02985 0.625217,-0.01949 1.250434,-0.03047 1.874283,0.01917 0.514704,-0.0073 1.028589,0.02052 1.543293,0.06084 0.227607,0.01181 0.455204,0.02384 0.68335,0.03783 1.894026,0.104471 3.77489,0.366353 5.64396,0.688554 1.197235,0.204568 2.37939,0.491956 3.563182,0.75986 0.297254,0.08167 0.594508,0.163163 0.894229,0.237754 4.66856,1.300341 9.130085,3.312555 13.289424,5.779436 1.408663,0.704463 2.63386,1.701527 3.959714,2.540632 3.123059,2.227478 5.985624,4.812811 8.528184,7.683614 0.93891,1.009398 1.77884,2.108187 2.6876,3.142821 0.5424,0.617539 1.52493,-0.0313 1.16981,-0.772483 l -0.0107,-0.02218 c -2.01989,-3.382763 -4.98281,-6.060502 -7.845099,-8.718778 -0.143688,-0.137937 -0.290952,-0.272028 -0.440393,-0.403933 -0.456302,-0.403094 0.0398,-1.127311 0.582165,-0.850619 0.170562,0.08716 0.340845,0.173579 0.511138,0.25612 2.665129,1.651614 4.850919,3.957518 6.792649,6.394508 2.91,3.760909 5.33245,7.888991 7.31833,12.204922 1.02914,2.16688 1.8082,4.438229 2.66705,6.674217 0.43409,1.96313 1.02174,3.905697 1.19257,5.916543 0.32714,1.591285 0.36251,3.217682 0.60438,4.819942 0.34908,6.011697 0.47988,12.144323 -0.94331,18.040843 -0.20813,0.934818 -0.73162,1.908563 -0.75602,2.872441 -0.0167,0.65456 0.77165,1.008579 1.26469,0.577782 0.91891,-0.802363 1.37356,-2.109835 1.75582,-3.244556 0.76534,-2.579301 1.09002,-5.267197 1.25619,-7.946585 0.0445,-0.794134 0.085,-1.587449 0.0951,-2.382412 0.0132,-0.287927 0.0135,-0.575035 0.019,-0.859128 0.0104,-0.291492 0.0104,-0.580798 0.0167,-0.869274 0.0151,-0.344142 -0.0104,-0.687466 -0.0328,-1.029142 0.0866,-2.680216 -0.26517,-5.347809 -0.4031,-8.017061 -0.3244,-1.868245 -0.38665,-3.779554 -0.8476,-5.627238 -0.13246,-1.974654 -0.81059,-3.834402 -1.33572,-5.718556 0.13244,-0.15055 0.26516,-0.300821 0.40008,-0.449723 0.37458,0.278061 0.64523,0.655109 0.88024,1.053 0.29204,0.646061 0.54569,1.311866 0.88408,1.936536 0.16672,0.679237 0.42339,1.329412 0.68582,1.97794 0.34414,1.347508 0.62741,2.711195 0.94934,4.065834 0.32879,1.160497 0.29753,2.375831 0.56023,3.547024 0.0357,1.264149 0.36608,2.525003 0.25173,3.789152 l 0.0438,0.01347 c 0.0343,0.195509 0.10281,0.586829 0.13711,0.782619 l -0.22321,-0.05783 c 0.17194,0.273127 0.16151,0.609859 0.19058,0.922194 0.0475,1.35355 0.0143,2.708459 0.051,4.062279 -0.29177,7.855545 -1.44183,15.82462 -4.70613,23.039587 -1.11003,2.234329 -2.35689,4.536679 -2.41613,7.09267 0.0398,0.715159 0.29643,1.243307 0.62384,1.630222 0.64799,0.765902 1.8603,0.672117 2.38077,-0.185643 4.09983,-6.755647 6.88342,-14.106354 8.27946,-21.870591 1.53014,-8.509556 1.31598,-17.132362 -0.63673,-25.629025 z"
       id="path74" />
  </g>
</svg>
